<?xml version="1.0" encoding="UTF-8" standalone="no"?>
<svg
   xmlns:dc="http://purl.org/dc/elements/1.1/"
   xmlns:cc="http://creativecommons.org/ns#"
   xmlns:rdf="http://www.w3.org/1999/02/22-rdf-syntax-ns#"
   xmlns:svg="http://www.w3.org/2000/svg"
   xmlns="http://www.w3.org/2000/svg"
   xmlns:sodipodi="http://sodipodi.sourceforge.net/DTD/sodipodi-0.dtd"
   xmlns:inkscape="http://www.inkscape.org/namespaces/inkscape"
   version="1.1"
   width="88.208603"
   height="84.558952"
   id="svg2985"
   xml:space="preserve"
   sodipodi:docname="logo-mobile.svg"
   inkscape:version="1.0.1 (3bc2e813f5, 2020-09-07)"><sodipodi:namedview
     pagecolor="#ffffff"
     bordercolor="#666666"
     borderopacity="1"
     objecttolerance="10"
     gridtolerance="10"
     guidetolerance="10"
     inkscape:pageopacity="0"
     inkscape:pageshadow="2"
     inkscape:window-width="1480"
     inkscape:window-height="987"
     id="namedview356"
     showgrid="false"
     inkscape:zoom="3.5581559"
     inkscape:cx="62.761842"
     inkscape:cy="47.239923"
     inkscape:window-x="0"
     inkscape:window-y="0"
     inkscape:window-maximized="0"
     inkscape:current-layer="g2995"
     inkscape:document-rotation="0" /><metadata
     id="metadata2991"><rdf:RDF><cc:Work
         rdf:about=""><dc:format>image/svg+xml</dc:format><dc:type
           rdf:resource="http://purl.org/dc/dcmitype/StillImage" /><dc:title /></cc:Work></rdf:RDF></metadata><defs
     id="defs2989" /><g
     transform="matrix(0.99510925,0,0,0.91763487,-488.12238,524.2292)"
     id="g2995"><g
       id="g13"
       transform="matrix(2.3591941,0,0,2.0123948,-678.5784,551.81511)"><path
         d="m 497.17267,-537.46211 c 0.15283,-4.70411 0.53515,-8.20215 6.24267,-8.20215 3.05811,0.0244 5.17285,0.78808 5.98828,3.99121 0.17823,0.73828 0.15284,1.50195 0.17823,2.24121 0,0 -3.56739,0 -3.56739,0 -0.0508,-1.87207 -0.17822,-3.35059 -2.59912,-3.44824 -2.80273,0 -2.57324,3.22656 -2.57324,4.65527 0,0 0,5.12402 0,5.12402 0,1.52637 0.12744,4.01465 2.57324,4.01465 2.03858,0 2.70117,-2.09472 2.62451,-4.87793 0,0 -2.47167,0 -2.47167,0 0,0 0,-2.70898 0,-2.70898 0,0 5.93701,0 5.93701,0 0,0 0,9.92676 0,9.92676 0,0 -2.6753,0 -2.6753,0 0,0 0,-2.11817 0,-2.11817 0,0 -0.0508,0 -0.0508,0 -0.71338,1.9209 -2.06396,2.46289 -3.36377,2.56153 -5.86035,0 -6.24267,-3.59668 -6.24267,-8.52246 0,0 0,-2.63672 0,-2.63672 z"
         id="path3641"
         style="fill:#2e3192;fill-opacity:1;fill-rule:nonzero;stroke:none" /><path
         d="m 512.81504,-526.74629 c 0,0 0,-18.47364 0,-18.47364 0,0 3.56836,0 3.56836,0 0,0 0,18.47364 0,18.47364 0,0 -3.56836,0 -3.56836,0 z"
         id="path3643"
         style="fill:#2e3192;fill-opacity:1;fill-rule:nonzero;stroke:none" /><path
         d="m 524.81484,-529.45625 c 3.18457,0 3.38965,-1.625 3.38965,-6.97071 0,-4.35937 -0.45899,-6.08398 -2.59961,-6.08398 0,0 -2.34375,0 -2.34375,0 0,0 0,13.05469 0,13.05469 0,0 1.55371,0 1.55371,0 z m -5.12207,2.70996 c 0,0 0,-18.47364 0,-18.47364 0,0 7.4414,0 7.4414,0 0.86524,0 2.59864,0.36914 3.69434,2.09375 0.81543,1.28028 1.04492,3.32422 1.04492,6.37891 0,3.64648 0,7.85742 -2.93066,9.50781 -0.78906,0.44336 -1.75781,0.49317 -2.65039,0.49317 0,0 -6.59961,0 -6.59961,0 z"
         id="path3645"
         style="fill:#2e3192;fill-opacity:1;fill-rule:nonzero;stroke:none" /></g></g></svg>
