<?xml version="1.0" encoding="UTF-8" standalone="no"?>
<svg
   xmlns:dc="http://purl.org/dc/elements/1.1/"
   xmlns:cc="http://creativecommons.org/ns#"
   xmlns:rdf="http://www.w3.org/1999/02/22-rdf-syntax-ns#"
   xmlns:svg="http://www.w3.org/2000/svg"
   xmlns="http://www.w3.org/2000/svg"
   xmlns:sodipodi="http://sodipodi.sourceforge.net/DTD/sodipodi-0.dtd"
   xmlns:inkscape="http://www.inkscape.org/namespaces/inkscape"
   version="1.1"
   width="88.208603"
   height="84.558952"
   id="svg2985"
   xml:space="preserve"
   sodipodi:docname="logo_small.svg"
   inkscape:version="1.0.1 (3bc2e813f5, 2020-09-07)"><sodipodi:namedview
     pagecolor="#ffffff"
     bordercolor="#666666"
     borderopacity="1"
     objecttolerance="10"
     gridtolerance="10"
     guidetolerance="10"
     inkscape:pageopacity="0"
     inkscape:pageshadow="2"
     inkscape:window-width="1752"
     inkscape:window-height="1016"
     id="namedview174"
     showgrid="false"
     inkscape:zoom="3.5874239"
     inkscape:cx="-8.8245016"
     inkscape:cy="30.989007"
     inkscape:window-x="0"
     inkscape:window-y="0"
     inkscape:window-maximized="0"
     inkscape:current-layer="svg2985" /><metadata
     id="metadata2991"><rdf:RDF><cc:Work
         rdf:about=""><dc:format>image/svg+xml</dc:format><dc:type
           rdf:resource="http://purl.org/dc/dcmitype/StillImage" /><dc:title></dc:title></cc:Work></rdf:RDF></metadata><defs
     id="defs2989" /><g
     transform="matrix(0.52316774,0,0,-0.49179689,-242.71696,260.77174)"
     id="g2993"><g
       transform="scale(1,-1)"
       id="g2995"><g
         transform="translate(-3.3541424,-401.37904)"
         id="g3978"><path
           d="m 573.83008,-96.13281 c 0,0 -19.27832,28.91797 0.22851,28.91797 8.03321,-0.23047 14.68848,-4.59082 14.68848,-4.59082 0,0 -3.21289,-2.06446 -3.21289,-2.06446 0,0 -20.24609,10.16895 -18.13086,-3.21289 1.7793,-11.24609 6.42676,-19.0498 6.42676,-19.0498 z"
           id="path3317"
           style="fill:#ed1c24;fill-opacity:1;fill-rule:nonzero;stroke:none" /><path
           d="m 583.56543,-80.3291 c 0,0 -4.94141,3.56836 -4.94141,3.56836 2.39942,3.32422 5.41114,5.9414 8.76661,7.81836 1.28417,-1.1211 2.61035,-2.25293 3.97167,-3.39063 -2.84375,-2.13476 -5.5039,-4.82226 -7.79687,-7.99609 z"
           id="path3319"
           style="fill:#ffffff;fill-opacity:1;fill-rule:nonzero;stroke:none" /><path
           d="m 583.56543,-80.3291 c 0,0 -4.94141,3.56836 -4.94141,3.56836 2.39942,3.32422 5.41114,5.9414 8.76661,7.81836 1.28417,-1.1211 2.61035,-2.25293 3.97167,-3.39063 -2.84375,-2.13476 -5.5039,-4.82226 -7.79687,-7.99609 z"
           id="path3321"
           style="fill:none;stroke:#00a650;stroke-width:0.36369;stroke-linecap:butt;stroke-linejoin:miter;stroke-miterlimit:4;stroke-dasharray:none;stroke-opacity:1" /><path
           d="m 591.3623,-72.33301 c -1.36132,1.1377 -2.6875,2.26953 -3.97167,3.39063 3.92675,2.19336 8.32519,3.37109 12.77636,3.45898 0.57129,-0.55664 1.15821,-1.11133 1.75781,-1.66601 -3.58593,-0.90235 -7.20507,-2.66016 -10.5625,-5.1836 z"
           id="path3323"
           style="fill:#ffffff;fill-opacity:1;fill-rule:nonzero;stroke:none" /><path
           d="m 591.3623,-72.33301 c -1.36132,1.1377 -2.6875,2.26953 -3.97167,3.39063 3.92675,2.19336 8.32519,3.37109 12.77636,3.45898 0.57129,-0.55664 1.15821,-1.11133 1.75781,-1.66601 -3.58593,-0.90235 -7.20507,-2.66016 -10.5625,-5.1836 z"
           id="path3325"
           style="fill:none;stroke:#00a650;stroke-width:0.36369;stroke-linecap:butt;stroke-linejoin:miter;stroke-miterlimit:4;stroke-dasharray:none;stroke-opacity:1" /><path
           d="m 578.06055,-107.81543 c -1.46778,2.19629 -2.59375,4.57813 -3.36231,7.05859 0.70703,-0.36816 1.41895,-0.75 2.13379,-1.14453 0.15332,-2.08496 0.5625,-4.07422 1.22852,-5.91406 z"
           id="path3327"
           style="fill:#ffffff;fill-opacity:1;fill-rule:nonzero;stroke:none" /><path
           d="m 578.06055,-107.81543 c -1.46778,2.19629 -2.59375,4.57813 -3.36231,7.05859 0.70703,-0.36816 1.41895,-0.75 2.13379,-1.14453 0.15332,-2.08496 0.5625,-4.07422 1.22852,-5.91406 z"
           id="path3329"
           style="fill:none;stroke:#00a650;stroke-width:0.36369;stroke-linecap:butt;stroke-linejoin:miter;stroke-miterlimit:4;stroke-dasharray:none;stroke-opacity:1" /><path
           d="m 601.9248,-67.14941 c -0.5996,0.55468 -1.18652,1.10937 -1.75781,1.66601 2.59571,0.05078 5.20996,-0.26758 7.75781,-0.9707 -1.95507,0.05273 -3.97265,-0.18555 -6,-0.69531 z"
           id="path3331"
           style="fill:#ffffff;fill-opacity:1;fill-rule:nonzero;stroke:none" /><path
           d="m 601.9248,-67.14941 c -0.5996,0.55468 -1.18652,1.10937 -1.75781,1.66601 2.59571,0.05078 5.20996,-0.26758 7.75781,-0.9707 -1.95507,0.05273 -3.97265,-0.18555 -6,-0.69531 z"
           id="path3333"
           style="fill:none;stroke:#00a650;stroke-width:0.36369;stroke-linecap:butt;stroke-linejoin:miter;stroke-miterlimit:4;stroke-dasharray:none;stroke-opacity:1" /><path
           d="m 578.42969,-90.24512 c -1.50879,0.9336 -2.99903,1.83594 -4.46875,2.70313 0.72656,3.77734 2.26367,7.45801 4.66308,10.78125 0,0 4.94141,-3.56836 4.94141,-3.56836 -2.29297,-3.17383 -4.00391,-6.54395 -5.13574,-9.91602 z"
           id="path3335"
           style="fill:#ffffff;fill-opacity:1;fill-rule:nonzero;stroke:none" /><path
           d="m 578.42969,-90.24512 c -1.50879,0.9336 -2.99903,1.83594 -4.46875,2.70313 0.72656,3.77734 2.26367,7.45801 4.66308,10.78125 0,0 4.94141,-3.56836 4.94141,-3.56836 -2.29297,-3.17383 -4.00391,-6.54395 -5.13574,-9.91602 z"
           id="path3337"
           style="fill:none;stroke:#00a650;stroke-width:0.36369;stroke-linecap:butt;stroke-linejoin:miter;stroke-miterlimit:4;stroke-dasharray:none;stroke-opacity:1" /><path
           d="m 576.83203,-101.90137 c -0.71484,0.39453 -1.42676,0.77637 -2.13379,1.14453 -1.3164,4.25293 -1.58496,8.79688 -0.7373,13.21485 1.46972,-0.86719 2.95996,-1.76953 4.46875,-2.70313 -1.33887,-3.98047 -1.86817,-7.96679 -1.59766,-11.65625 z"
           id="path3339"
           style="fill:#ffffff;fill-opacity:1;fill-rule:nonzero;stroke:none" /><path
           d="m 576.83203,-101.90137 c -0.71484,0.39453 -1.42676,0.77637 -2.13379,1.14453 -1.3164,4.25293 -1.58496,8.79688 -0.7373,13.21485 1.46972,-0.86719 2.95996,-1.76953 4.46875,-2.70313 -1.33887,-3.98047 -1.86817,-7.96679 -1.59766,-11.65625 z"
           id="path3341"
           style="fill:none;stroke:#00a650;stroke-width:0.36369;stroke-linecap:butt;stroke-linejoin:miter;stroke-miterlimit:4;stroke-dasharray:none;stroke-opacity:1" /><path
           d="m 610.00488,-113.04395 c 1.36035,-1.13671 2.6875,-2.26757 3.97071,-3.38867 -3.92579,-2.19531 -8.32422,-3.37109 -12.77539,-3.45898 -0.57129,0.55469 -1.15723,1.10937 -1.75782,1.66406 3.58789,0.90234 7.20508,2.66211 10.5625,5.18359 z"
           id="path3343"
           style="fill:#ffffff;fill-opacity:1;fill-rule:nonzero;stroke:none" /><path
           d="m 610.00488,-113.04395 c 1.36035,-1.13671 2.6875,-2.26757 3.97071,-3.38867 -3.92579,-2.19531 -8.32422,-3.37109 -12.77539,-3.45898 -0.57129,0.55469 -1.15723,1.10937 -1.75782,1.66406 3.58789,0.90234 7.20508,2.66211 10.5625,5.18359 z"
           id="path3345"
           style="fill:none;stroke:#00a650;stroke-width:0.36369;stroke-linecap:butt;stroke-linejoin:miter;stroke-miterlimit:4;stroke-dasharray:none;stroke-opacity:1" /><path
           d="m 623.30762,-77.56055 c 1.46875,-2.19629 2.59375,-4.5791 3.36133,-7.05859 -0.70606,0.36816 -1.41797,0.74902 -2.13379,1.14453 -0.15332,2.08496 -0.56348,4.0752 -1.22754,5.91406 z"
           id="path3347"
           style="fill:#ffffff;fill-opacity:1;fill-rule:nonzero;stroke:none" /><path
           d="m 623.30762,-77.56055 c 1.46875,-2.19629 2.59375,-4.5791 3.36133,-7.05859 -0.70606,0.36816 -1.41797,0.74902 -2.13379,1.14453 -0.15332,2.08496 -0.56348,4.0752 -1.22754,5.91406 z"
           id="path3349"
           style="fill:none;stroke:#00a650;stroke-width:0.36369;stroke-linecap:butt;stroke-linejoin:miter;stroke-miterlimit:4;stroke-dasharray:none;stroke-opacity:1" /><path
           d="m 624.53516,-83.47461 c 0.71582,-0.39551 1.42773,-0.77637 2.13379,-1.14453 1.3164,-4.25195 1.58398,-8.79688 0.73632,-13.21387 -1.46679,0.86524 -2.95898,1.76856 -4.46679,2.70117 1.33789,3.98145 1.86914,7.96875 1.59668,11.65723 z"
           id="path3351"
           style="fill:#ffffff;fill-opacity:1;fill-rule:nonzero;stroke:none" /><path
           d="m 624.53516,-83.47461 c 0.71582,-0.39551 1.42773,-0.77637 2.13379,-1.14453 1.3164,-4.25195 1.58398,-8.79688 0.73632,-13.21387 -1.46679,0.86524 -2.95898,1.76856 -4.46679,2.70117 1.33789,3.98145 1.86914,7.96875 1.59668,11.65723 z"
           id="path3353"
           style="fill:none;stroke:#00a650;stroke-width:0.36369;stroke-linecap:butt;stroke-linejoin:miter;stroke-miterlimit:4;stroke-dasharray:none;stroke-opacity:1" /><path
           d="m 617.80078,-105.0459 c 2.29199,3.17383 4.00488,6.54297 5.1377,9.91406 1.50781,-0.93261 3,-1.83593 4.46679,-2.70117 -0.72461,-3.77637 -2.26172,-7.45898 -4.66211,-10.78222 0,0 -4.94238,3.56933 -4.94238,3.56933 z"
           id="path3355"
           style="fill:#ffffff;fill-opacity:1;fill-rule:nonzero;stroke:none" /><path
           d="m 617.80078,-105.0459 c 2.29199,3.17383 4.00488,6.54297 5.1377,9.91406 1.50781,-0.93261 3,-1.83593 4.46679,-2.70117 -0.72461,-3.77637 -2.26172,-7.45898 -4.66211,-10.78222 0,0 -4.94238,3.56933 -4.94238,3.56933 z"
           id="path3357"
           style="fill:none;stroke:#00a650;stroke-width:0.36369;stroke-linecap:butt;stroke-linejoin:miter;stroke-miterlimit:4;stroke-dasharray:none;stroke-opacity:1" /><path
           d="m 617.80078,-105.0459 c 0,0 4.94238,-3.56933 4.94238,-3.56933 -2.39843,-3.32325 -5.41015,-5.94239 -8.76757,-7.81739 -1.28321,1.1211 -2.61036,2.25196 -3.97071,3.38867 2.84375,2.13672 5.50293,4.82227 7.7959,7.99805 z"
           id="path3359"
           style="fill:#ffffff;fill-opacity:1;fill-rule:nonzero;stroke:none" /><path
           d="m 617.80078,-105.0459 c 0,0 4.94238,-3.56933 4.94238,-3.56933 -2.39843,-3.32325 -5.41015,-5.94239 -8.76757,-7.81739 -1.28321,1.1211 -2.61036,2.25196 -3.97071,3.38867 2.84375,2.13672 5.50293,4.82227 7.7959,7.99805 z"
           id="path3361"
           style="fill:none;stroke:#00a650;stroke-width:0.36369;stroke-linecap:butt;stroke-linejoin:miter;stroke-miterlimit:4;stroke-dasharray:none;stroke-opacity:1" /><path
           d="m 599.44238,-118.22754 c 0.60059,-0.55469 1.18653,-1.10937 1.75782,-1.66406 -2.59571,-0.0527 -5.21094,0.26758 -7.75684,0.96875 1.95508,-0.0527 3.97168,0.18359 5.99902,0.69531 z"
           id="path3363"
           style="fill:#ffffff;fill-opacity:1;fill-rule:nonzero;stroke:none" /><path
           d="m 599.44238,-118.22754 c 0.60059,-0.55469 1.18653,-1.10937 1.75782,-1.66406 -2.59571,-0.0527 -5.21094,0.26758 -7.75684,0.96875 1.95508,-0.0527 3.97168,0.18359 5.99902,0.69531 z"
           id="path3365"
           style="fill:none;stroke:#00a650;stroke-width:0.36369;stroke-linecap:butt;stroke-linejoin:miter;stroke-miterlimit:4;stroke-dasharray:none;stroke-opacity:1" /><path
           d="m 587.87793,-116.69629 c 1.79492,-0.96094 3.66211,-1.69922 5.56543,-2.22656"
           id="path3367"
           style="fill:#ffffff;fill-opacity:1;fill-rule:nonzero;stroke:none" /><path
           d="m 587.87793,-116.69629 c 1.79492,-0.96094 3.66211,-1.69922 5.56543,-2.22656"
           id="path3369"
           style="fill:none;stroke:#00a650;stroke-width:0.36369;stroke-linecap:butt;stroke-linejoin:miter;stroke-miterlimit:4;stroke-dasharray:none;stroke-opacity:1" /><path
           d="m 578.06055,-107.81543 c 1.09863,-1.6416 2.38769,-3.18066 3.86425,-4.58203"
           id="path3371"
           style="fill:#ffffff;fill-opacity:1;fill-rule:nonzero;stroke:none" /><path
           d="m 578.06055,-107.81543 c 1.09863,-1.6416 2.38769,-3.18066 3.86425,-4.58203"
           id="path3373"
           style="fill:none;stroke:#00a650;stroke-width:0.36369;stroke-linecap:butt;stroke-linejoin:miter;stroke-miterlimit:4;stroke-dasharray:none;stroke-opacity:1" /><path
           d="m 623.30762,-77.56055 c -1.09766,1.6416 -2.38867,3.18164 -3.86524,4.58106"
           id="path3375"
           style="fill:#ffffff;fill-opacity:1;fill-rule:nonzero;stroke:none" /><path
           d="m 623.30762,-77.56055 c -1.09766,1.6416 -2.38867,3.18164 -3.86524,4.58106"
           id="path3377"
           style="fill:none;stroke:#00a650;stroke-width:0.36369;stroke-linecap:butt;stroke-linejoin:miter;stroke-miterlimit:4;stroke-dasharray:none;stroke-opacity:1" /><path
           d="m 613.48926,-68.68066 c -1.79297,0.96093 -3.66016,1.70019 -5.56446,2.22656"
           id="path3379"
           style="fill:#ffffff;fill-opacity:1;fill-rule:nonzero;stroke:none" /><path
           d="m 613.48926,-68.68066 c -1.79297,0.96093 -3.66016,1.70019 -5.56446,2.22656"
           id="path3381"
           style="fill:none;stroke:#00a650;stroke-width:0.36369;stroke-linecap:butt;stroke-linejoin:miter;stroke-miterlimit:4;stroke-dasharray:none;stroke-opacity:1" /><path
           d="m 591.64355,-86.16016 c 0,0 -8.07812,5.83106 -8.07812,5.83106 2.29297,3.17383 4.95312,5.86133 7.79687,7.99609 2.26758,-1.89453 4.63965,-3.80859 7.10352,-5.72363 -2.32519,-2.35254 -4.63769,-5.0791 -6.82227,-8.10352 z"
           id="path3383"
           style="fill:#ffffff;fill-opacity:1;fill-rule:nonzero;stroke:none" /><path
           d="m 591.64355,-86.16016 c 0,0 -8.07812,5.83106 -8.07812,5.83106 2.29297,3.17383 4.95312,5.86133 7.79687,7.99609 2.26758,-1.89453 4.63965,-3.80859 7.10352,-5.72363 -2.32519,-2.35254 -4.63769,-5.0791 -6.82227,-8.10352 z"
           id="path3385"
           style="fill:none;stroke:#00a650;stroke-width:0.36369;stroke-linecap:butt;stroke-linejoin:miter;stroke-miterlimit:4;stroke-dasharray:none;stroke-opacity:1" /><path
           d="m 591.3623,-72.33301 c 3.35743,2.52344 6.97657,4.28125 10.5625,5.1836 1.51368,-1.40039 3.11231,-2.7959 4.78907,-4.17676 -2.63086,-1.61133 -5.44727,-3.89942 -8.24805,-6.73047 -2.46387,1.91504 -4.83594,3.8291 -7.10352,5.72363 z"
           id="path3387"
           style="fill:#ffffff;fill-opacity:1;fill-rule:nonzero;stroke:none" /><path
           d="m 591.3623,-72.33301 c 3.35743,2.52344 6.97657,4.28125 10.5625,5.1836 1.51368,-1.40039 3.11231,-2.7959 4.78907,-4.17676 -2.63086,-1.61133 -5.44727,-3.89942 -8.24805,-6.73047 -2.46387,1.91504 -4.83594,3.8291 -7.10352,5.72363 z"
           id="path3389"
           style="fill:none;stroke:#00a650;stroke-width:0.36369;stroke-linecap:butt;stroke-linejoin:miter;stroke-miterlimit:4;stroke-dasharray:none;stroke-opacity:1" /><path
           d="m 615.26855,-90.19043 c 2.59375,-1.73437 5.15625,-3.38477 7.66993,-4.94141 -1.13282,-3.37109 -2.84571,-6.74023 -5.1377,-9.91406 0,0 -8.07519,5.83008 -8.07519,5.83008 2.18261,3.02539 4.04199,6.07812 5.54296,9.02539 z"
           id="path3391"
           style="fill:#ffffff;fill-opacity:1;fill-rule:nonzero;stroke:none" /><path
           d="m 615.26855,-90.19043 c 2.59375,-1.73437 5.15625,-3.38477 7.66993,-4.94141 -1.13282,-3.37109 -2.84571,-6.74023 -5.1377,-9.91406 0,0 -8.07519,5.83008 -8.07519,5.83008 2.18261,3.02539 4.04199,6.07812 5.54296,9.02539 z"
           id="path3393"
           style="fill:none;stroke:#00a650;stroke-width:0.36369;stroke-linecap:butt;stroke-linejoin:miter;stroke-miterlimit:4;stroke-dasharray:none;stroke-opacity:1" /><path
           d="m 576.83203,-101.90137 c 1.80567,-0.99511 3.63379,-2.07422 5.47266,-3.23242 -0.66504,-2.83594 -0.80762,-5.32226 -0.37989,-7.26367 -1.47656,1.40137 -2.76562,2.94043 -3.86425,4.58203 -0.66602,1.83984 -1.0752,3.8291 -1.22852,5.91406 z"
           id="path3395"
           style="fill:#ffffff;fill-opacity:1;fill-rule:nonzero;stroke:none" /><path
           d="m 576.83203,-101.90137 c 1.80567,-0.99511 3.63379,-2.07422 5.47266,-3.23242 -0.66504,-2.83594 -0.80762,-5.32226 -0.37989,-7.26367 -1.47656,1.40137 -2.76562,2.94043 -3.86425,4.58203 -0.66602,1.83984 -1.0752,3.8291 -1.22852,5.91406 z"
           id="path3397"
           style="fill:none;stroke:#00a650;stroke-width:0.36369;stroke-linecap:butt;stroke-linejoin:miter;stroke-miterlimit:4;stroke-dasharray:none;stroke-opacity:1" /><path
           d="m 610.00488,-113.04395 c -3.35742,-2.52148 -6.97461,-4.28125 -10.5625,-5.18359 -1.51367,1.40039 -3.11133,2.79688 -4.78906,4.17774 2.63086,1.61132 5.44824,3.89941 8.25,6.73242 2.46191,-1.91602 4.83398,-3.83106 7.10156,-5.72657 z"
           id="path3399"
           style="fill:#ffffff;fill-opacity:1;fill-rule:nonzero;stroke:none" /><path
           d="m 610.00488,-113.04395 c -3.35742,-2.52148 -6.97461,-4.28125 -10.5625,-5.18359 -1.51367,1.40039 -3.11133,2.79688 -4.78906,4.17774 2.63086,1.61132 5.44824,3.89941 8.25,6.73242 2.46191,-1.91602 4.83398,-3.83106 7.10156,-5.72657 z"
           id="path3401"
           style="fill:none;stroke:#00a650;stroke-width:0.36369;stroke-linecap:butt;stroke-linejoin:miter;stroke-miterlimit:4;stroke-dasharray:none;stroke-opacity:1" /><path
           d="m 586.09863,-95.18457 c -2.59375,1.73437 -5.15625,3.38281 -7.66894,4.93945 1.13183,3.37207 2.84277,6.74219 5.13574,9.91602 0,0 8.07812,-5.83106 8.07812,-5.83106 -2.18554,-3.02441 -4.04394,-6.0791 -5.54492,-9.02441 z"
           id="path3403"
           style="fill:#ffffff;fill-opacity:1;fill-rule:nonzero;stroke:none" /><path
           d="m 586.09863,-95.18457 c -2.59375,1.73437 -5.15625,3.38281 -7.66894,4.93945 1.13183,3.37207 2.84277,6.74219 5.13574,9.91602 0,0 8.07812,-5.83106 8.07812,-5.83106 -2.18554,-3.02441 -4.04394,-6.0791 -5.54492,-9.02441 z"
           id="path3405"
           style="fill:none;stroke:#00a650;stroke-width:0.36369;stroke-linecap:butt;stroke-linejoin:miter;stroke-miterlimit:4;stroke-dasharray:none;stroke-opacity:1" /><path
           d="m 582.30469,-105.13379 c -1.83887,1.1582 -3.66699,2.23731 -5.47266,3.23242 -0.27051,3.68946 0.25879,7.67578 1.59766,11.65625 2.51269,-1.55664 5.07519,-3.20508 7.66894,-4.93945 -1.80664,-3.55078 -3.09179,-6.94531 -3.79394,-9.94922 z"
           id="path3407"
           style="fill:#ffffff;fill-opacity:1;fill-rule:nonzero;stroke:none" /><path
           d="m 582.30469,-105.13379 c -1.83887,1.1582 -3.66699,2.23731 -5.47266,3.23242 -0.27051,3.68946 0.25879,7.67578 1.59766,11.65625 2.51269,-1.55664 5.07519,-3.20508 7.66894,-4.93945 -1.80664,-3.55078 -3.09179,-6.94531 -3.79394,-9.94922 z"
           id="path3409"
           style="fill:none;stroke:#00a650;stroke-width:0.36369;stroke-linecap:butt;stroke-linejoin:miter;stroke-miterlimit:4;stroke-dasharray:none;stroke-opacity:1" /><path
           d="m 619.06348,-80.24219 c 1.83886,-1.15918 3.66601,-2.23535 5.47168,-3.23242 0.27246,-3.68848 -0.25879,-7.67578 -1.59668,-11.65723 -2.51368,1.55664 -5.07618,3.20704 -7.66993,4.94141 1.80762,3.55078 3.09278,6.94336 3.79493,9.94824 z"
           id="path3411"
           style="fill:#ffffff;fill-opacity:1;fill-rule:nonzero;stroke:none" /><path
           d="m 619.06348,-80.24219 c 1.83886,-1.15918 3.66601,-2.23535 5.47168,-3.23242 0.27246,-3.68848 -0.25879,-7.67578 -1.59668,-11.65723 -2.51368,1.55664 -5.07618,3.20704 -7.66993,4.94141 1.80762,3.55078 3.09278,6.94336 3.79493,9.94824 z"
           id="path3413"
           style="fill:none;stroke:#00a650;stroke-width:0.36369;stroke-linecap:butt;stroke-linejoin:miter;stroke-miterlimit:4;stroke-dasharray:none;stroke-opacity:1" /><path
           d="m 594.65332,-114.0498 c 1.67773,-1.38086 3.27539,-2.77735 4.78906,-4.17774 -2.02734,-0.51172 -4.04394,-0.74805 -5.99902,-0.69531 -1.90332,0.52734 -3.77051,1.26562 -5.56543,2.22656 1.97656,0.20508 4.29102,1.12305 6.77539,2.64649 z"
           id="path3415"
           style="fill:#ffffff;fill-opacity:1;fill-rule:nonzero;stroke:none" /><path
           d="m 594.65332,-114.0498 c 1.67773,-1.38086 3.27539,-2.77735 4.78906,-4.17774 -2.02734,-0.51172 -4.04394,-0.74805 -5.99902,-0.69531 -1.90332,0.52734 -3.77051,1.26562 -5.56543,2.22656 1.97656,0.20508 4.29102,1.12305 6.77539,2.64649 z"
           id="path3417"
           style="fill:none;stroke:#00a650;stroke-width:0.36369;stroke-linecap:butt;stroke-linejoin:miter;stroke-miterlimit:4;stroke-dasharray:none;stroke-opacity:1" /><path
           d="m 606.71387,-71.32617 c -1.67676,1.38086 -3.27539,2.77637 -4.78907,4.17676 2.02735,0.50976 4.04493,0.74804 6,0.69531 1.9043,-0.52637 3.77149,-1.26563 5.56446,-2.22656 -1.97656,-0.20508 -4.29199,-1.1211 -6.77539,-2.64551 z"
           id="path3419"
           style="fill:#ffffff;fill-opacity:1;fill-rule:nonzero;stroke:none" /><path
           d="m 606.71387,-71.32617 c -1.67676,1.38086 -3.27539,2.77637 -4.78907,4.17676 2.02735,0.50976 4.04493,0.74804 6,0.69531 1.9043,-0.52637 3.77149,-1.26563 5.56446,-2.22656 -1.97656,-0.20508 -4.29199,-1.1211 -6.77539,-2.64551 z"
           id="path3421"
           style="fill:none;stroke:#00a650;stroke-width:0.36369;stroke-linecap:butt;stroke-linejoin:miter;stroke-miterlimit:4;stroke-dasharray:none;stroke-opacity:1" /><path
           d="m 602.90332,-107.31738 c 2.32422,2.35156 4.63672,5.07617 6.82227,8.10156 0,0 8.07519,-5.83008 8.07519,-5.83008 -2.29297,-3.17578 -4.95215,-5.86133 -7.7959,-7.99805 -2.26758,1.89551 -4.63965,3.81055 -7.10156,5.72657 z"
           id="path3423"
           style="fill:#ffffff;fill-opacity:1;fill-rule:nonzero;stroke:none" /><path
           d="m 602.90332,-107.31738 c 2.32422,2.35156 4.63672,5.07617 6.82227,8.10156 0,0 8.07519,-5.83008 8.07519,-5.83008 -2.29297,-3.17578 -4.95215,-5.86133 -7.7959,-7.99805 -2.26758,1.89551 -4.63965,3.81055 -7.10156,5.72657 z"
           id="path3425"
           style="fill:none;stroke:#00a650;stroke-width:0.36369;stroke-linecap:butt;stroke-linejoin:miter;stroke-miterlimit:4;stroke-dasharray:none;stroke-opacity:1" /><path
           d="m 624.53516,-83.47461 c -1.80567,0.99707 -3.63282,2.07324 -5.47168,3.23242 0.66308,2.83692 0.80761,5.32324 0.3789,7.2627 1.47657,-1.39942 2.76758,-2.93946 3.86524,-4.58106 0.66406,-1.83886 1.07422,-3.8291 1.22754,-5.91406 z"
           id="path3427"
           style="fill:#ffffff;fill-opacity:1;fill-rule:nonzero;stroke:none" /><path
           d="m 624.53516,-83.47461 c -1.80567,0.99707 -3.63282,2.07324 -5.47168,3.23242 0.66308,2.83692 0.80761,5.32324 0.3789,7.2627 1.47657,-1.39942 2.76758,-2.93946 3.86524,-4.58106 0.66406,-1.83886 1.07422,-3.8291 1.22754,-5.91406 z"
           id="path3429"
           style="fill:none;stroke:#00a650;stroke-width:0.36369;stroke-linecap:butt;stroke-linejoin:miter;stroke-miterlimit:4;stroke-dasharray:none;stroke-opacity:1" /><path
           d="m 581.9248,-112.39746 c 0.87891,-0.83399 1.82129,-1.62109 2.83204,-2.34961"
           id="path3431"
           style="fill:#ffffff;fill-opacity:1;fill-rule:nonzero;stroke:none" /><path
           d="m 581.9248,-112.39746 c 0.87891,-0.83399 1.82129,-1.62109 2.83204,-2.34961"
           id="path3433"
           style="fill:none;stroke:#00a650;stroke-width:0.36369;stroke-linecap:butt;stroke-linejoin:miter;stroke-miterlimit:4;stroke-dasharray:none;stroke-opacity:1" /><path
           d="m 584.75684,-114.74707 c 1.00976,-0.72852 2.05078,-1.37598 3.12109,-1.94922"
           id="path3435"
           style="fill:#ffffff;fill-opacity:1;fill-rule:nonzero;stroke:none" /><path
           d="m 584.75684,-114.74707 c 1.00976,-0.72852 2.05078,-1.37598 3.12109,-1.94922"
           id="path3437"
           style="fill:none;stroke:#00a650;stroke-width:0.36369;stroke-linecap:butt;stroke-linejoin:miter;stroke-miterlimit:4;stroke-dasharray:none;stroke-opacity:1" /><path
           d="m 616.61035,-70.62891 c -1.00976,0.7295 -2.05078,1.37793 -3.12109,1.94825"
           id="path3439"
           style="fill:#ffffff;fill-opacity:1;fill-rule:nonzero;stroke:none" /><path
           d="m 616.61035,-70.62891 c -1.00976,0.7295 -2.05078,1.37793 -3.12109,1.94825"
           id="path3441"
           style="fill:none;stroke:#00a650;stroke-width:0.36369;stroke-linecap:butt;stroke-linejoin:miter;stroke-miterlimit:4;stroke-dasharray:none;stroke-opacity:1" /><path
           d="m 619.44238,-72.97949 c -0.8789,0.83594 -1.82226,1.62304 -2.83203,2.35058"
           id="path3443"
           style="fill:#ffffff;fill-opacity:1;fill-rule:nonzero;stroke:none" /><path
           d="m 619.44238,-72.97949 c -0.8789,0.83594 -1.82226,1.62304 -2.83203,2.35058"
           id="path3445"
           style="fill:none;stroke:#00a650;stroke-width:0.36369;stroke-linecap:butt;stroke-linejoin:miter;stroke-miterlimit:4;stroke-dasharray:none;stroke-opacity:1" /><path
           d="m 591.64355,-86.16016 c 2.18458,3.02442 4.49708,5.75098 6.82227,8.10352 2.66211,-2.07617 5.42969,-4.15332 8.29102,-6.21973 0,0 -6.07422,-8.41211 -6.07422,-8.41211 0,0 -9.03907,6.52832 -9.03907,6.52832 z"
           id="path3447"
           style="fill:#ffffff;fill-opacity:1;fill-rule:nonzero;stroke:none" /><path
           d="m 591.64355,-86.16016 c 2.18458,3.02442 4.49708,5.75098 6.82227,8.10352 2.66211,-2.07617 5.42969,-4.15332 8.29102,-6.21973 0,0 -6.07422,-8.41211 -6.07422,-8.41211 0,0 -9.03907,6.52832 -9.03907,6.52832 z"
           id="path3449"
           style="fill:none;stroke:#00a650;stroke-width:0.36369;stroke-linecap:butt;stroke-linejoin:miter;stroke-miterlimit:4;stroke-dasharray:none;stroke-opacity:1" /><path
           d="m 606.75684,-84.27637 c 0,0 0,0 0,0 2.86132,-2.06543 5.70507,-4.04101 8.51171,-5.91406 -1.50097,-2.94727 -3.36035,-6 -5.54296,-9.02539 0,0 -9.04297,6.52734 -9.04297,6.52734 0,0 6.07422,8.41211 6.07422,8.41211 z"
           id="path3451"
           style="fill:#ffffff;fill-opacity:1;fill-rule:nonzero;stroke:none" /><path
           d="m 606.75684,-84.27637 c 0,0 0,0 0,0 2.86132,-2.06543 5.70507,-4.04101 8.51171,-5.91406 -1.50097,-2.94727 -3.36035,-6 -5.54296,-9.02539 0,0 -9.04297,6.52734 -9.04297,6.52734 0,0 6.07422,8.41211 6.07422,8.41211 z"
           id="path3453"
           style="fill:none;stroke:#00a650;stroke-width:0.36369;stroke-linecap:butt;stroke-linejoin:miter;stroke-miterlimit:4;stroke-dasharray:none;stroke-opacity:1" /><path
           d="m 600.68262,-92.68848 c 0,0 9.04297,-6.52734 9.04297,-6.52734 -2.18555,-3.02539 -4.49805,-5.75 -6.82227,-8.10156 -2.66406,2.07324 -5.43164,4.15234 -8.29297,6.21777 0,0 6.07227,8.41113 6.07227,8.41113 z"
           id="path3455"
           style="fill:#ffffff;fill-opacity:1;fill-rule:nonzero;stroke:none" /><path
           d="m 600.68262,-92.68848 c 0,0 9.04297,-6.52734 9.04297,-6.52734 -2.18555,-3.02539 -4.49805,-5.75 -6.82227,-8.10156 -2.66406,2.07324 -5.43164,4.15234 -8.29297,6.21777 0,0 6.07227,8.41113 6.07227,8.41113 z"
           id="path3457"
           style="fill:none;stroke:#00a650;stroke-width:0.36369;stroke-linecap:butt;stroke-linejoin:miter;stroke-miterlimit:4;stroke-dasharray:none;stroke-opacity:1" /><path
           d="m 606.75684,-84.27637 c 0,0 0,0 0,0 0,0 5.99023,8.29688 5.99023,8.29688 0,0 0,0 0,0 2.10645,-1.52149 4.21777,-2.94434 6.31641,-4.2627 -0.70215,-3.00488 -1.98731,-6.39746 -3.79493,-9.94824 -2.80664,1.87305 -5.65039,3.84863 -8.51171,5.91406 z"
           id="path3459"
           style="fill:#ffffff;fill-opacity:1;fill-rule:nonzero;stroke:none" /><path
           d="m 606.75684,-84.27637 c 0,0 0,0 0,0 0,0 5.99023,8.29688 5.99023,8.29688 0,0 0,0 0,0 2.10645,-1.52149 4.21777,-2.94434 6.31641,-4.2627 -0.70215,-3.00488 -1.98731,-6.39746 -3.79493,-9.94824 -2.80664,1.87305 -5.65039,3.84863 -8.51171,5.91406 z"
           id="path3461"
           style="fill:none;stroke:#00a650;stroke-width:0.36369;stroke-linecap:butt;stroke-linejoin:miter;stroke-miterlimit:4;stroke-dasharray:none;stroke-opacity:1" /><path
           d="m 594.61035,-101.09961 c 0,0 0,0 0,0 -2.8623,2.06543 -5.70508,4.04004 -8.51172,5.91504 1.50098,2.94531 3.35938,6 5.54492,9.02441 0,0 9.03907,-6.52832 9.03907,-6.52832 0,0 -6.07227,-8.41113 -6.07227,-8.41113 z"
           id="path3463"
           style="fill:#ffffff;fill-opacity:1;fill-rule:nonzero;stroke:none" /><path
           d="m 594.61035,-101.09961 c 0,0 0,0 0,0 -2.8623,2.06543 -5.70508,4.04004 -8.51172,5.91504 1.50098,2.94531 3.35938,6 5.54492,9.02441 0,0 9.03907,-6.52832 9.03907,-6.52832 0,0 -6.07227,-8.41113 -6.07227,-8.41113 z"
           id="path3465"
           style="fill:none;stroke:#00a650;stroke-width:0.36369;stroke-linecap:butt;stroke-linejoin:miter;stroke-miterlimit:4;stroke-dasharray:none;stroke-opacity:1" /><path
           d="m 594.61035,-101.09961 c 2.86133,-2.06543 5.62891,-4.14453 8.29297,-6.21777 -2.80176,-2.83301 -5.61914,-5.1211 -8.25,-6.73242 -1.91211,1.57714 -3.92773,3.13281 -6.0332,4.65332 0,0 5.99023,8.29687 5.99023,8.29687 z"
           id="path3467"
           style="fill:#ffffff;fill-opacity:1;fill-rule:nonzero;stroke:none" /><path
           d="m 594.61035,-101.09961 c 2.86133,-2.06543 5.62891,-4.14453 8.29297,-6.21777 -2.80176,-2.83301 -5.61914,-5.1211 -8.25,-6.73242 -1.91211,1.57714 -3.92773,3.13281 -6.0332,4.65332 0,0 5.99023,8.29687 5.99023,8.29687 z"
           id="path3469"
           style="fill:none;stroke:#00a650;stroke-width:0.36369;stroke-linecap:butt;stroke-linejoin:miter;stroke-miterlimit:4;stroke-dasharray:none;stroke-opacity:1" /><path
           d="m 612.74707,-75.97949 c 0,0 3.86328,5.35058 3.86328,5.35058 1.00977,-0.72754 1.95313,-1.51464 2.83203,-2.35058 0.42871,-1.93946 0.28418,-4.42578 -0.3789,-7.2627 -2.09864,1.31836 -4.20996,2.74121 -6.31641,4.2627 0,0 0,0 0,0 z"
           id="path3471"
           style="fill:#ffffff;fill-opacity:1;fill-rule:nonzero;stroke:none" /><path
           d="m 612.74707,-75.97949 c 0,0 3.86328,5.35058 3.86328,5.35058 1.00977,-0.72754 1.95313,-1.51464 2.83203,-2.35058 0.42871,-1.93946 0.28418,-4.42578 -0.3789,-7.2627 -2.09864,1.31836 -4.20996,2.74121 -6.31641,4.2627 0,0 0,0 0,0 z"
           id="path3473"
           style="fill:none;stroke:#00a650;stroke-width:0.36369;stroke-linecap:butt;stroke-linejoin:miter;stroke-miterlimit:4;stroke-dasharray:none;stroke-opacity:1" /><path
           d="m 606.75684,-84.27637 c -2.86133,2.06641 -5.62891,4.14356 -8.29102,6.21973 2.80078,2.83105 5.61719,5.11914 8.24805,6.73047 1.91308,-1.57715 3.92773,-3.13379 6.0332,-4.65332 0,0 -5.99023,-8.29688 -5.99023,-8.29688 z"
           id="path3475"
           style="fill:#ffffff;fill-opacity:1;fill-rule:nonzero;stroke:none" /><path
           d="m 606.75684,-84.27637 c -2.86133,2.06641 -5.62891,4.14356 -8.29102,6.21973 2.80078,2.83105 5.61719,5.11914 8.24805,6.73047 1.91308,-1.57715 3.92773,-3.13379 6.0332,-4.65332 0,0 -5.99023,-8.29688 -5.99023,-8.29688 z"
           id="path3477"
           style="fill:none;stroke:#00a650;stroke-width:0.36369;stroke-linecap:butt;stroke-linejoin:miter;stroke-miterlimit:4;stroke-dasharray:none;stroke-opacity:1" /><path
           d="m 606.71387,-71.32617 c 2.4834,1.52441 4.79883,2.44043 6.77539,2.64551 1.07031,-0.57032 2.11133,-1.21875 3.12109,-1.94825 0,0 -3.86328,-5.35058 -3.86328,-5.35058 -2.10547,1.51953 -4.12012,3.07617 -6.0332,4.65332 z"
           id="path3479"
           style="fill:#ffffff;fill-opacity:1;fill-rule:nonzero;stroke:none" /><path
           d="m 606.71387,-71.32617 c 2.4834,1.52441 4.79883,2.44043 6.77539,2.64551 1.07031,-0.57032 2.11133,-1.21875 3.12109,-1.94825 0,0 -3.86328,-5.35058 -3.86328,-5.35058 -2.10547,1.51953 -4.12012,3.07617 -6.0332,4.65332 z"
           id="path3481"
           style="fill:none;stroke:#00a650;stroke-width:0.36369;stroke-linecap:butt;stroke-linejoin:miter;stroke-miterlimit:4;stroke-dasharray:none;stroke-opacity:1" /><path
           d="m 594.61035,-101.09961 c 0,0 0,0 0,0 0,0 -5.99023,-8.29687 -5.99023,-8.29687 0,0 0,0 0,0 -2.10645,1.5205 -4.2168,2.94433 -6.31543,4.26269 0.70215,3.00391 1.9873,6.39844 3.79394,9.94922 2.80664,-1.875 5.64942,-3.84961 8.51172,-5.91504 z"
           id="path3483"
           style="fill:#ffffff;fill-opacity:1;fill-rule:nonzero;stroke:none" /><path
           d="m 594.61035,-101.09961 c 0,0 0,0 0,0 0,0 -5.99023,-8.29687 -5.99023,-8.29687 0,0 0,0 0,0 -2.10645,1.5205 -4.2168,2.94433 -6.31543,4.26269 0.70215,3.00391 1.9873,6.39844 3.79394,9.94922 2.80664,-1.875 5.64942,-3.84961 8.51172,-5.91504 z"
           id="path3485"
           style="fill:none;stroke:#00a650;stroke-width:0.36369;stroke-linecap:butt;stroke-linejoin:miter;stroke-miterlimit:4;stroke-dasharray:none;stroke-opacity:1" /><path
           d="m 588.62012,-109.39648 c 0,0 -3.86328,-5.35059 -3.86328,-5.35059 -1.01075,0.72852 -1.95313,1.51562 -2.83204,2.34961 -0.42773,1.94141 -0.28515,4.42773 0.37989,7.26367 2.09863,-1.31836 4.20898,-2.74219 6.31543,-4.26269 0,0 0,0 0,0 z"
           id="path3487"
           style="fill:#ffffff;fill-opacity:1;fill-rule:nonzero;stroke:none" /><path
           d="m 588.62012,-109.39648 c 0,0 -3.86328,-5.35059 -3.86328,-5.35059 -1.01075,0.72852 -1.95313,1.51562 -2.83204,2.34961 -0.42773,1.94141 -0.28515,4.42773 0.37989,7.26367 2.09863,-1.31836 4.20898,-2.74219 6.31543,-4.26269 0,0 0,0 0,0 z"
           id="path3489"
           style="fill:none;stroke:#00a650;stroke-width:0.36369;stroke-linecap:butt;stroke-linejoin:miter;stroke-miterlimit:4;stroke-dasharray:none;stroke-opacity:1" /><path
           d="m 594.65332,-114.0498 c -2.48437,-1.52344 -4.79883,-2.44141 -6.77539,-2.64649 -1.07031,0.57324 -2.11133,1.2207 -3.12109,1.94922 0,0 3.86328,5.35059 3.86328,5.35059 2.10547,-1.52051 4.12109,-3.07618 6.0332,-4.65332 z"
           id="path3491"
           style="fill:#ffffff;fill-opacity:1;fill-rule:nonzero;stroke:none" /><path
           d="m 594.65332,-114.0498 c -2.48437,-1.52344 -4.79883,-2.44141 -6.77539,-2.64649 -1.07031,0.57324 -2.11133,1.2207 -3.12109,1.94922 0,0 3.86328,5.35059 3.86328,5.35059 2.10547,-1.52051 4.12109,-3.07618 6.0332,-4.65332 z"
           id="path3493"
           style="fill:none;stroke:#00a650;stroke-width:0.36369;stroke-linecap:butt;stroke-linejoin:miter;stroke-miterlimit:4;stroke-dasharray:none;stroke-opacity:1" /><path
           d="m 598.25391,-61.28418 c 0,0 -0.21973,-0.01953 -0.21973,-0.01953 0,0 0.0342,-0.40234 0.0342,-0.40234 0,0 -0.006,0 -0.006,0 -0.10156,0.28515 -0.3457,0.41796 -0.63086,0.39257 -0.76758,-0.0664 -0.75976,-0.83593 -0.70703,-1.4414 0.0508,-0.60254 0.21973,-1.31641 0.9668,-1.25098 0.49218,0.04199 0.74707,0.38672 0.69922,0.86816 0,0 -0.29004,-0.02539 -0.29004,-0.02539 0.0244,-0.31738 -0.0908,-0.54882 -0.417,-0.58398 -0.56445,-0.05859 -0.62695,0.58789 -0.66406,1.02734 -0.0342,0.39258 -0.11426,1.07618 0.39258,1.14453 0.52832,0.06934 0.61914,-0.41113 0.65039,-0.82226 0,0 -0.57422,-0.04883 -0.57422,-0.04883 0,0 0.0225,-0.25781 0.0225,-0.25781 0,0 0.85938,0.07422 0.85938,0.07422 0,0 -0.11621,1.3457 -0.11621,1.3457 z"
           id="path3495"
           style="fill:#2e3192;fill-opacity:1;fill-rule:nonzero;stroke:none" /><path
           d="m 599.73047,-61.50781 c 0,0 -0.007,-9.8e-4 -0.007,-9.8e-4 -0.0986,0.19434 -0.27734,0.29785 -0.46386,0.29199 -0.28711,-0.0078 -0.45899,-0.16504 -0.44922,-0.50195 0,0 0.0391,-1.48145 0.0391,-1.48145 0,0 0.27344,0.0068 0.27344,0.0068 0,0 -0.041,1.49219 -0.041,1.49219 -0.004,0.16211 0.0459,0.25 0.23926,0.25488 0.13086,0.0029 0.25391,-0.05078 0.33301,-0.16016 0.0644,-0.0957 0.0859,-0.22558 0.0879,-0.33593 0,0 0.0332,-1.23242 0.0332,-1.23242 0,0 0.27344,0.0058 0.27344,0.0058 0,0 -0.0518,1.91993 -0.0518,1.91993 0,0 -0.27246,-0.0068 -0.27246,-0.0068 0,0 0.006,-0.25195 0.006,-0.25195 z"
           id="path3497"
           style="fill:#2e3192;fill-opacity:1;fill-rule:nonzero;stroke:none" /><path
           d="m 600.50586,-61.25293 c 0,0 -0.0303,-2.59082 -0.0303,-2.59082 0,0 0.27343,-0.0029 0.27343,-0.0029 0,0 0.0303,2.58984 0.0303,2.58984 0,0 -0.27344,0.0039 -0.27344,0.0039 z"
           id="path3499"
           style="fill:#2e3192;fill-opacity:1;fill-rule:nonzero;stroke:none" /><path
           d="m 601.28223,-62.95801 c 0,0 -0.2793,0.01074 -0.2793,0.01074 0,0 -0.009,-0.23144 -0.009,-0.23144 0,0 0.27539,-0.01074 0.27539,-0.01074 0,0 -0.006,-0.16211 -0.006,-0.16211 -0.004,-0.11426 -0.0107,-0.27246 0.0547,-0.37207 0.085,-0.13086 0.24609,-0.17188 0.50195,-0.15723 0,0 0.009,0.23145 0.009,0.23145 -0.22168,-0.01172 -0.2998,0.01171 -0.29101,0.24609 0,0 0.009,0.20312 0.009,0.20312 0,0 0.29882,-0.01171 0.29882,-0.01171 0,0 0.01,0.23242 0.01,0.23242 0,0 -0.30078,0.01074 -0.30078,0.01074 0,0 0.0654,1.68848 0.0654,1.68848 0,0 -0.27246,0.0098 -0.27246,0.0098 0,0 -0.0654,-1.6875 -0.0654,-1.6875 z"
           id="path3501"
           style="fill:#2e3192;fill-opacity:1;fill-rule:nonzero;stroke:none" /><path
           d="m 603.20313,-61.38574 c 0,0 -0.24805,-2.58008 -0.24805,-2.58008 0,0 0.28613,-0.02637 0.28613,-0.02637 0,0 0.24707,2.57813 0.24707,2.57813 0,0 -0.28515,0.02832 -0.28515,0.02832 z"
           id="path3503"
           style="fill:#2e3192;fill-opacity:1;fill-rule:nonzero;stroke:none" /><path
           d="m 604.0957,-63.20313 c 0.11524,-0.18261 0.24219,-0.29785 0.44727,-0.32519 0.2832,-0.04102 0.49023,0.08398 0.53613,0.4209 0,0 0.20215,1.46777 0.20215,1.46777 0,0 -0.27051,0.03711 -0.27051,0.03711 0,0 -0.1914,-1.39258 -0.1914,-1.39258 -0.0283,-0.19824 -0.11133,-0.32226 -0.33106,-0.29297 -0.0986,0.0127 -0.18945,0.06348 -0.25098,0.14258 -0.0967,0.11524 -0.0947,0.22656 -0.0762,0.36328 0,0 0.17578,1.27246 0.17578,1.27246 0,0 -0.2705,0.03809 -0.2705,0.03809 0,0 -0.2627,-1.90234 -0.2627,-1.90234 0,0 0.26367,-0.03711 0.26367,-0.03711 0,0 0.0283,0.208 0.0283,0.208 z"
           id="path3505"
           style="fill:#2e3192;fill-opacity:1;fill-rule:nonzero;stroke:none" /><path
           d="m 605.74316,-63.67285 c 0,0 0.31739,-0.05762 0.31739,-0.05762 0,0 0.04,0.22754 0.04,0.22754 0,0 -0.31153,0.05664 -0.31153,0.05664 0,0 0.23242,1.28906 0.23242,1.28906 0.0117,0.06348 0.003,0.15039 0.15235,0.12305 0,0 0.18066,-0.03125 0.18066,-0.03125 0,0 0.041,0.22559 0.041,0.22559 0,0 -0.2959,0.05468 -0.2959,0.05468 -0.15918,0.03125 -0.28223,0.02637 -0.33496,-0.25976 0,0 -0.24512,-1.35254 -0.24512,-1.35254 0,0 -0.26074,0.04687 -0.26074,0.04687 0,0 -0.042,-0.22656 -0.042,-0.22656 0,0 0.26172,-0.04883 0.26172,-0.04883 0,0 -0.0928,-0.51172 -0.0928,-0.51172 0,0 0.26465,-0.04882 0.26465,-0.04882 0,0 0.0928,0.51367 0.0928,0.51367 z"
           id="path3507"
           style="fill:#2e3192;fill-opacity:1;fill-rule:nonzero;stroke:none" /><path
           d="m 607.28223,-63.21582 c -0.0586,-0.2168 -0.12207,-0.56738 -0.43262,-0.49902 -0.31055,0.06933 -0.24121,0.41406 -0.20117,0.63964 0,0 0.63379,-0.14062 0.63379,-0.14062 z m 0.37597,0.45215 c 0.0977,0.36328 -0.0234,0.71289 -0.41797,0.79883 -0.35351,0.0791 -0.6582,-0.10157 -0.82617,-0.8584 -0.0879,-0.39356 -0.11426,-1.00684 0.38184,-1.11719 0.60742,-0.13379 0.70117,0.44727 0.81152,0.88281 0,0 -0.91113,0.20215 -0.91113,0.20215 0.0635,0.25098 0.12695,0.74707 0.50098,0.66309 0.25683,-0.05664 0.27539,-0.30762 0.21093,-0.5166 0,0 0.25,-0.05469 0.25,-0.05469 z"
           id="path3509"
           style="fill:#2e3192;fill-opacity:1;fill-rule:nonzero;stroke:none" /><path
           d="m 608.08301,-63.87305 c 0,0 0.007,-0.0029 0.007,-0.0029 0.0459,-0.27246 0.17579,-0.41699 0.45801,-0.46679 0,0 0.0693,0.25976 0.0693,0.25976 -0.35645,0.03028 -0.5,0.29688 -0.41114,0.63477 0,0 0.29786,1.12402 0.29786,1.12402 0,0 -0.26368,0.07129 -0.26368,0.07129 0,0 -0.49218,-1.85742 -0.49218,-1.85742 0,0 0.25488,-0.06738 0.25488,-0.06738 0,0 0.0801,0.30468 0.0801,0.30468 z"
           id="path3511"
           style="fill:#2e3192;fill-opacity:1;fill-rule:nonzero;stroke:none" /><path
           d="m 609.05762,-64.25488 c 0.083,-0.19922 0.18945,-0.33301 0.38769,-0.39453 0.27344,-0.08594 0.4961,0.0039 0.59668,0.32617 0,0 0.44239,1.41504 0.44239,1.41504 0,0 -0.26075,0.08203 -0.26075,0.08203 0,0 -0.41894,-1.34278 -0.41894,-1.34278 -0.0596,-0.1914 -0.16211,-0.30078 -0.37305,-0.23437 -0.0957,0.0293 -0.17773,0.09473 -0.22656,0.18164 -0.0752,0.12891 -0.0547,0.23926 -0.0146,0.37109 0,0 0.38379,1.22657 0.38379,1.22657 0,0 -0.26074,0.08203 -0.26074,0.08203 0,0 -0.57227,-1.83399 -0.57227,-1.83399 0,0 0.25391,-0.0791 0.25391,-0.0791 0,0 0.0625,0.2002 0.0625,0.2002 z"
           id="path3513"
           style="fill:#2e3192;fill-opacity:1;fill-rule:nonzero;stroke:none" /><path
           d="m 611.28516,-64.29785 c -0.0977,0.12305 -0.21973,0.22949 -0.33203,0.3457 -0.0986,0.09961 -0.0879,0.24707 -0.043,0.36914 0.0684,0.18164 0.15722,0.28125 0.36425,0.20508 0.0967,-0.03711 0.28321,-0.19141 0.17383,-0.4834 0,0 -0.16308,-0.43652 -0.16308,-0.43652 z m 0.7832,0.81347 c -0.0176,0.0098 -0.0361,0.02051 -0.0537,0.03614 -0.21192,0.08984 -0.30078,0.09961 -0.41895,-0.13574 0,0 -0.006,0.0029 -0.006,0.0029 -0.002,0.18164 -0.11816,0.375 -0.28906,0.43945 -0.36035,0.13281 -0.53808,-0.02735 -0.66015,-0.35352 -0.0264,-0.06933 -0.11329,-0.33203 0.0957,-0.53515 0.12109,-0.11817 0.43262,-0.39063 0.45508,-0.42774 0.0391,-0.0625 0.006,-0.13281 -0.0283,-0.22558 -0.0762,-0.20411 -0.18262,-0.25293 -0.38965,-0.17481 -0.2334,0.08594 -0.22559,0.20606 -0.14453,0.41504 0,0 -0.2295,0.08496 -0.2295,0.08496 -0.15136,-0.36621 -0.0273,-0.59765 0.33497,-0.7334 0.5332,-0.19824 0.65625,0.26465 0.67187,0.30664 0,0 0.38477,1.03223 0.38477,1.03223 0.0166,0.04492 0.0342,0.11133 0.0957,0.11914 0.04,-0.0039 0.0772,-0.02246 0.11133,-0.03809 0,0 0.0703,0.1875 0.0703,0.1875 z"
           id="path3515"
           style="fill:#2e3192;fill-opacity:1;fill-rule:nonzero;stroke:none" /><path
           d="m 611.9502,-65.51074 c 0,0 0.29687,-0.12305 0.29687,-0.12305 0,0 0.0889,0.21387 0.0889,0.21387 0,0 -0.29395,0.12109 -0.29395,0.12109 0,0 0.49805,1.21094 0.49805,1.21094 0.0254,0.06152 0.0342,0.14746 0.1748,0.08887 0,0 0.16993,-0.06934 0.16993,-0.06934 0,0 0.0879,0.21289 0.0879,0.21289 0,0 -0.27832,0.11621 -0.27832,0.11621 -0.14942,0.06446 -0.27149,0.08399 -0.38184,-0.18457 0,0 -0.52344,-1.27148 -0.52344,-1.27148 0,0 -0.24609,0.10254 -0.24609,0.10254 0,0 -0.0879,-0.21485 -0.0879,-0.21485 0,0 0.24609,-0.10156 0.24609,-0.10156 0,0 -0.19922,-0.48145 -0.19922,-0.48145 0,0 0.25,-0.10351 0.25,-0.10351 0,0 0.19825,0.4834 0.19825,0.4834 z"
           id="path3517"
           style="fill:#2e3192;fill-opacity:1;fill-rule:nonzero;stroke:none" /><path
           d="m 613.28125,-63.98926 c 0,0 -0.7793,-1.75683 -0.7793,-1.75683 0,0 0.25,-0.11036 0.25,-0.11036 0,0 0.77735,1.75586 0.77735,1.75586 0,0 -0.24805,0.11133 -0.24805,0.11133 z m -0.91016,-2.05273 c 0,0 -0.14062,-0.31641 -0.14062,-0.31641 0,0 0.25,-0.11133 0.25,-0.11133 0,0 0.13965,0.31641 0.13965,0.31641 0,0 -0.24903,0.11133 -0.24903,0.11133 z"
           id="path3519"
           style="fill:#2e3192;fill-opacity:1;fill-rule:nonzero;stroke:none" /><path
           d="m 613.75586,-66.13184 c -0.25195,0.12403 -0.26563,0.37696 -0.0117,0.89844 0.19922,0.40625 0.41309,0.64551 0.69727,0.50488 0.29199,-0.14355 0.22851,-0.4541 0.0293,-0.86035 -0.25488,-0.52148 -0.458,-0.66894 -0.71484,-0.54297 z m 0.78809,1.61133 c -0.37207,0.18164 -0.72754,0.07813 -1.09082,-0.66601 -0.25586,-0.52149 -0.22461,-0.94336 0.20019,-1.15235 0.42578,-0.20898 0.7793,0.02735 1.03418,0.54785 0.36621,0.74707 0.23535,1.08497 -0.14355,1.27051 z"
           id="path3521"
           style="fill:#2e3192;fill-opacity:1;fill-rule:nonzero;stroke:none" /><path
           d="m 614.93164,-66.69922 c 0.0391,-0.21191 0.11621,-0.36621 0.29785,-0.46777 0.25,-0.13867 0.48731,-0.09766 0.65137,0.19726 0,0 0.72266,1.29493 0.72266,1.29493 0,0 -0.23829,0.13281 -0.23829,0.13281 0,0 -0.68554,-1.22656 -0.68554,-1.22656 -0.0977,-0.17579 -0.21973,-0.26075 -0.41406,-0.1543 -0.0859,0.0498 -0.15235,0.13086 -0.18165,0.22558 -0.0488,0.14161 -0.006,0.24414 0.0606,0.36426 0,0 0.62695,1.12305 0.62695,1.12305 0,0 -0.23828,0.13281 -0.23828,0.13281 0,0 -0.93652,-1.67578 -0.93652,-1.67578 0,0 0.23242,-0.13086 0.23242,-0.13086 0,0 0.10254,0.18457 0.10254,0.18457 z"
           id="path3523"
           style="fill:#2e3192;fill-opacity:1;fill-rule:nonzero;stroke:none" /><path
           d="m 617.1084,-67.20117 c -0.0732,0.13965 -0.1709,0.26855 -0.25684,0.40429 -0.0762,0.11817 -0.0371,0.26075 0.0332,0.3711 0.10253,0.16406 0.20898,0.24414 0.39746,0.12598 0.0869,-0.05372 0.23925,-0.24219 0.0732,-0.50586 0,0 -0.24707,-0.39551 -0.24707,-0.39551 z m 0.93066,0.63965 c -0.0156,0.01464 -0.0312,0.02734 -0.0459,0.04394 -0.19043,0.13184 -0.27441,0.16113 -0.4375,-0.04785 0,0 -0.006,0.0049 -0.006,0.0049 0.0342,0.17774 -0.04,0.3916 -0.19433,0.48828 -0.3252,0.20313 -0.5332,0.08106 -0.71777,-0.21484 -0.0391,-0.06055 -0.17676,-0.30078 -0.0137,-0.54199 0.0947,-0.14063 0.34571,-0.46875 0.36036,-0.51172 0.0254,-0.06934 -0.0205,-0.12891 -0.0733,-0.21484 -0.11621,-0.1836 -0.22949,-0.20997 -0.41797,-0.0918 -0.21093,0.13086 -0.17871,0.24609 -0.0566,0.43555 0,0 -0.208,0.12988 -0.208,0.12988 -0.22266,-0.33008 -0.14747,-0.58008 0.17968,-0.78613 0.4834,-0.30274 0.69532,0.12695 0.71973,0.16406 0,0 0.58496,0.93555 0.58496,0.93555 0.0254,0.04003 0.0566,0.10253 0.11816,0.0957 0.0371,-0.01074 0.0713,-0.03613 0.10157,-0.0586 0,0 0.10644,0.16993 0.10644,0.16993 z"
           id="path3525"
           style="fill:#2e3192;fill-opacity:1;fill-rule:nonzero;stroke:none" /><path
           d="m 618.32617,-66.76074 c 0,0 -1.4541,-2.14453 -1.4541,-2.14453 0,0 0.22559,-0.15235 0.22559,-0.15235 0,0 1.4541,2.14356 1.4541,2.14356 0,0 -0.22559,0.15332 -0.22559,0.15332 z"
           id="path3527"
           style="fill:#2e3192;fill-opacity:1;fill-rule:nonzero;stroke:none" /><path
           d="m 619.75,-68.09473 c 0,0 0.36035,-0.28515 0.36035,-0.28515 0.33106,-0.25977 0.27246,-0.61426 -0.22851,-1.20508 -0.38184,-0.45117 -0.69043,-0.70899 -1.05371,-0.42285 0,0 -0.36133,0.28418 -0.36133,0.28418 0,0 1.2832,1.6289 1.2832,1.6289 z m -0.0654,0.38086 c 0,0 -1.60352,-2.03613 -1.60352,-2.03613 0,0 0.55958,-0.44043 0.55958,-0.44043 0.63476,-0.5 1.12695,-0.05273 1.50683,0.46191 0.375,0.51075 0.6875,1.10743 0.1377,1.542 0,0 -0.60059,0.47265 -0.60059,0.47265 z"
           id="path3529"
           style="fill:#2e3192;fill-opacity:1;fill-rule:nonzero;stroke:none" /><path
           d="m 621.16211,-70.44043 c -0.15723,-0.16211 -0.38184,-0.4375 -0.62012,-0.22656 -0.23828,0.20996 -0.01,0.47851 0.13379,0.65625 0,0 0.48633,-0.42969 0.48633,-0.42969 z m 0.54687,0.21191 c 0.2627,0.27051 0.32618,0.63477 0.0234,0.90332 -0.27246,0.23926 -0.62597,0.2295 -1.13867,-0.3496 -0.26758,-0.30274 -0.58789,-0.82813 -0.20703,-1.16407 0.46484,-0.41211 0.82812,0.05078 1.13672,0.37891 0,0 -0.69922,0.61719 -0.69922,0.61719 0.17676,0.18945 0.47266,0.59277 0.75976,0.33886 0.19727,-0.17382 0.0908,-0.40332 -0.0664,-0.55468 0,0 0.1914,-0.16993 0.1914,-0.16993 z"
           id="path3531"
           style="fill:#2e3192;fill-opacity:1;fill-rule:nonzero;stroke:none" /><path
           d="m 620.95117,-71.27051 c 0,0 0.20313,-0.19629 0.20313,-0.19629 0,0 1.48925,0.90918 1.48925,0.90918 0,0 0.005,-0.0059 0.005,-0.0059 0,0 -0.86426,-1.51367 -0.86426,-1.51367 0,0 0.20312,-0.19726 0.20312,-0.19726 0,0 0.92383,1.77832 0.92383,1.77832 0,0 -0.21289,0.208 -0.21289,0.208 0,0 -1.74707,-0.98242 -1.74707,-0.98242 z"
           id="path3533"
           style="fill:#2e3192;fill-opacity:1;fill-rule:nonzero;stroke:none" /><path
           d="m 623.25391,-72.51465 c -0.17188,-0.14746 -0.42188,-0.40039 -0.63868,-0.16797 -0.21777,0.23145 0.0352,0.47852 0.19336,0.64063 0,0 0.44532,-0.47266 0.44532,-0.47266 z m 0.56445,0.16016 c 0.28711,0.24414 0.38281,0.59961 0.10742,0.89453 -0.24902,0.26562 -0.60254,0.28906 -1.16699,-0.24024 -0.29492,-0.27636 -0.66309,-0.76757 -0.31543,-1.13867 0.42578,-0.45312 0.83008,-0.02636 1.16699,0.27051 0,0 -0.63769,0.68066 -0.63769,0.68066 0.19336,0.17188 0.52636,0.54493 0.78906,0.26465 0.17969,-0.1914 0.0527,-0.40918 -0.11817,-0.5459 0,0 0.17481,-0.18554 0.17481,-0.18554 z"
           id="path3535"
           style="fill:#2e3192;fill-opacity:1;fill-rule:nonzero;stroke:none" /><path
           d="m 624.57422,-72.24902 c 0,0 -1.95117,-1.70508 -1.95117,-1.70508 0,0 0.17871,-0.20508 0.17871,-0.20508 0,0 1.95215,1.7041 1.95215,1.7041 0,0 -0.17969,0.20606 -0.17969,0.20606 z"
           id="path3537"
           style="fill:#2e3192;fill-opacity:1;fill-rule:nonzero;stroke:none" /><path
           d="m 624.10059,-74.3877 c -0.17579,0.2168 -0.082,0.45313 0.36914,0.81836 0.35254,0.28418 0.6455,0.41016 0.84472,0.16309 0.2041,-0.25293 0.0156,-0.50781 -0.33593,-0.79297 -0.45118,-0.36426 -0.69727,-0.41211 -0.87793,-0.18848 z m 1.39453,1.12696 c -0.26074,0.32226 -0.62598,0.3789 -1.27051,-0.14258 -0.45117,-0.36621 -0.60156,-0.7627 -0.30371,-1.13086 0.29785,-0.36719 0.7168,-0.30371 1.16797,0.06152 0.64746,0.52344 0.6709,0.88379 0.40625,1.21192 z"
           id="path3539"
           style="fill:#2e3192;fill-opacity:1;fill-rule:nonzero;stroke:none" /><path
           d="m 625.1123,-75.70703 c -0.20996,0.28808 0.19434,0.58984 0.41504,0.75 0.21582,0.15527 0.62989,0.46777 0.84961,0.16308 0.167,-0.22851 -0.0205,-0.47558 -0.44043,-0.78027 -0.2041,-0.14844 -0.62011,-0.41601 -0.82422,-0.13281 z m 1.72168,1.69726 c 0,0 -0.16015,0.22071 -0.16015,0.22071 0,0 -2.08008,-1.50879 -2.08008,-1.50879 0,0 0.15332,-0.21289 0.15332,-0.21289 0,0 0.17285,0.12597 0.17285,0.12597 0,0 0.005,-0.0059 0.005,-0.0059 -0.0947,-0.17675 -0.0654,-0.34667 0.0176,-0.47753 0.28614,-0.39454 0.7666,-0.22071 1.08496,0.0098 0.44239,0.32031 0.86621,0.74805 0.5625,1.16797 -0.11425,0.15625 -0.25781,0.18945 -0.44433,0.18164 0,0 0.68847,0.49902 0.68847,0.49902 z"
           id="path3541"
           style="fill:#2e3192;fill-opacity:1;fill-rule:nonzero;stroke:none" /><path
           d="m 627.31543,-75.8125 c 0,0 -0.14551,0.23145 -0.14551,0.23145 0,0 -1.62597,-1.02247 -1.62597,-1.02247 0,0 0.13964,-0.22168 0.13964,-0.22168 0,0 0.20704,0.12891 0.20704,0.12891 -0.0859,-0.16797 -0.11133,-0.37891 -0.004,-0.54883 0.10742,-0.17383 0.29883,-0.24902 0.5,-0.22461 -0.0957,-0.21875 -0.11231,-0.39257 0.0156,-0.59765 0.0703,-0.11133 0.17286,-0.19043 0.30176,-0.22657 0.16309,-0.04492 0.34082,0.0752 0.44238,0.13965 0,0 1.17579,0.73926 1.17579,0.73926 0,0 -0.14454,0.23145 -0.14454,0.23145 0,0 -1.19043,-0.74903 -1.19043,-0.74903 -0.18164,-0.11328 -0.31445,-0.12793 -0.44042,0.07032 -0.0459,0.08203 -0.0635,0.17968 -0.0449,0.27343 0.0254,0.14649 0.11133,0.21778 0.22852,0.29102 0,0 1.08789,0.68457 1.08789,0.68457 0,0 -0.14453,0.23047 -0.14453,0.23047 0,0 -1.19043,-0.74707 -1.19043,-0.74707 -0.16895,-0.10742 -0.31934,-0.12305 -0.43652,0.06347 -0.0527,0.08496 -0.0723,0.18653 -0.0527,0.28418 0.0254,0.14746 0.11621,0.21192 0.23242,0.28614 0,0 1.08887,0.68359 1.08887,0.68359 z"
           id="path3543"
           style="fill:#2e3192;fill-opacity:1;fill-rule:nonzero;stroke:none" /><path
           d="m 627.94141,-79.14551 c -0.20313,-0.09961 -0.50879,-0.28125 -0.66016,-0.0019 -0.15234,0.2793 0.1543,0.45312 0.34961,0.57129 0,0 0.31055,-0.56934 0.31055,-0.56934 z m 0.58593,0.01172 c 0.33985,0.16504 0.52344,0.48438 0.33008,0.83984 -0.17285,0.31934 -0.50976,0.43165 -1.18945,0.06153 -0.35547,-0.19434 -0.83496,-0.57715 -0.5918,-1.02246 0.29688,-0.5459 0.7959,-0.23633 1.19727,-0.03321 0,0 -0.44531,0.82032 -0.44531,0.82032 0.23046,0.11718 0.64648,0.39453 0.8291,0.05664 0.12597,-0.23047 -0.0518,-0.40821 -0.25098,-0.49805 0,0 0.12109,-0.22461 0.12109,-0.22461 z"
           id="path3545"
           style="fill:#2e3192;fill-opacity:1;fill-rule:nonzero;stroke:none" /><path
           d="m 627.86328,-80.19922 c -0.0889,-0.19629 -0.11523,-0.36621 -0.0244,-0.55371 0.12402,-0.25781 0.34277,-0.35937 0.64746,-0.21289 0,0 1.33496,0.64453 1.33496,0.64453 0,0 -0.11816,0.24609 -0.11816,0.24609 0,0 -1.26661,-0.61132 -1.26661,-0.61132 -0.18066,-0.08789 -0.33105,-0.08692 -0.42675,0.11328 -0.043,0.08984 -0.0518,0.19336 -0.0205,0.28906 0.042,0.1416 0.13574,0.20313 0.25976,0.2627 0,0 1.15821,0.55957 1.15821,0.55957 0,0 -0.11914,0.24414 -0.11914,0.24414 0,0 -1.7295,-0.83399 -1.7295,-0.83399 0,0 0.11524,-0.23828 0.11524,-0.23828 0,0 0.18945,0.09082 0.18945,0.09082 z"
           id="path3547"
           style="fill:#2e3192;fill-opacity:1;fill-rule:nonzero;stroke:none" /><path
           d="m 628.3916,-81.8457 c 0,0 0.12793,-0.29395 0.12793,-0.29395 0,0 0.21289,0.0918 0.21289,0.0918 0,0 -0.12695,0.29101 -0.12695,0.29101 0,0 1.20117,0.52149 1.20117,0.52149 0.0606,0.02734 0.12695,0.08203 0.1875,-0.05762 0,0 0.0723,-0.16699 0.0723,-0.16699 0,0 0.21289,0.08984 0.21289,0.08984 0,0 -0.12012,0.27539 -0.12012,0.27539 -0.0615,0.15039 -0.13477,0.25196 -0.40137,0.13672 0,0 -1.26172,-0.54785 -1.26172,-0.54785 0,0 -0.10546,0.24414 -0.10546,0.24414 0,0 -0.2129,-0.09277 -0.2129,-0.09277 0,0 0.10645,-0.24414 0.10645,-0.24414 0,0 -0.47852,-0.20703 -0.47852,-0.20703 0,0 0.10743,-0.24805 0.10743,-0.24805 0,0 0.47851,0.20801 0.47851,0.20801 z"
           id="path3549"
           style="fill:#2e3192;fill-opacity:1;fill-rule:nonzero;stroke:none" /><path
           d="m 630.72461,-82.48145 c 0,0 -2.17969,-0.7871 -2.17969,-0.7871 0,0 0.0859,-0.24122 0.0859,-0.24122 0,0 1.96289,0.70899 1.96289,0.70899 0,0 0.32129,-0.88965 0.32129,-0.88965 0,0 0.21777,0.0791 0.21777,0.0791 0,0 -0.4082,1.12988 -0.4082,1.12988 z"
           id="path3551"
           style="fill:#2e3192;fill-opacity:1;fill-rule:nonzero;stroke:none" /><path
           d="m 631.23828,-83.93066 c 0,0 -2.21387,-0.68946 -2.21387,-0.68946 0,0 0.0762,-0.24414 0.0762,-0.24414 0,0 1.99218,0.61914 1.99218,0.61914 0,0 0.28125,-0.90234 0.28125,-0.90234 0,0 0.22168,0.06836 0.22168,0.06836 0,0 -0.35742,1.14844 -0.35742,1.14844 z"
           id="path3553"
           style="fill:#2e3192;fill-opacity:1;fill-rule:nonzero;stroke:none" /><path
           d="m 630.38086,-86.83594 c -0.26856,-0.06347 -0.51758,-0.03515 -0.59961,0.27637 -0.11133,0.43066 0.50098,0.5957 0.79688,0.67187 0.30273,0.09082 0.98046,0.27247 1.09765,-0.18164 0.0771,-0.29687 -0.14844,-0.42285 -0.38672,-0.51562 -0.0498,-0.01953 -0.0996,-0.03516 -0.14843,-0.05469 0,0 0.0644,-0.24707 0.0644,-0.24707 0.043,0.0166 0.0908,0.0293 0.13476,0.04688 0.17774,0.06152 0.31348,0.10644 0.44141,0.25488 0.13086,0.1582 0.18066,0.33594 0.125,0.55176 -0.17871,0.6914 -0.85254,0.54394 -1.38867,0.40332 -0.50586,-0.12891 -1.1211,-0.36914 -0.95606,-1.00586 0.11036,-0.42578 0.48536,-0.56446 0.88379,-0.44922 0,0 -0.0644,0.24902 -0.0644,0.24902 z"
           id="path3555"
           style="fill:#2e3192;fill-opacity:1;fill-rule:nonzero;stroke:none" /><path
           d="m 583.30566,-103.47949 c 0,0 -0.34863,1.56836 -0.63867,1.85937 0,0 0.46485,0 0.63867,0.17383 0.17481,0.17578 1.86036,3.08008 1.91797,3.48633 0.0586,0.4082 0.40723,0.29101 0.34864,0.58203 0,0 1.10449,1.10352 0.75488,1.51172 0,0 0.11719,1.10254 0.29101,1.10254 0.17383,0 2.44141,0.87207 2.38282,3.60351 0,0 -0.0576,0.75489 0.0586,1.1045 0,0 -0.17383,0.75488 0.29102,1.16211 0,0 0.9873,1.45117 1.74218,1.68554 0,0 1.16309,1.39453 1.16309,1.85938 0,0 0.34863,0.87109 0.40625,1.04492 0,0 0.63965,0.98828 1.2207,1.22168 0,0 0,0.58105 0.46387,0.92871 0,0 0.20898,0.53125 0.33398,1.08398 0.0937,0.41504 0.14063,0.8418 0.0156,1.06641 0,0 0.0586,1.2207 0.29101,1.74414 0,0 0.23145,1.04492 0.40625,1.33594 0,0 0.23243,0.69726 0.0586,0.98828 0,0 0.29004,1.16211 0.87207,1.16211 0,0 0.63769,0.52344 1.74219,-0.23242 0,0 1.27832,-0.34961 1.56933,-0.75489 0,0 2.49903,-0.52343 3.19531,-0.98925 0.69922,-0.46485 1.68555,-0.34668 2.3252,-1.10352 0,0 1.16309,-0.63867 1.56934,-0.69726 0.40722,-0.0586 3.48632,-1.33594 3.60351,-1.56836 0.11524,-0.23243 -0.46582,-1.04688 0.81348,-1.56934 0,0 2.03418,-0.81348 2.32324,-0.98926 0.29004,-0.17383 1.04688,0.40723 1.39551,-0.05664 0.34863,-0.46484 0.2334,-1.50976 0.75488,-1.68555 0.52344,-0.17382 1.62793,0.11524 1.80274,-1.2207 0,-0.58105 1.21972,-0.81445 1.62793,-0.87109 0.40527,-0.0586 -0.2334,-0.81446 -0.17481,-1.22168 0.0576,-0.40528 0.34766,-2.32324 0.75391,-1.39356 0.40625,0.52344 0.58203,-0.63965 0.58203,-0.63965 0,0 1.10351,-1.56933 1.2207,-1.80078 0.11524,-0.23339 0.58106,-1.68652 0,-1.3955 -0.58105,0.29101 -1.33789,-1.2793 -1.33789,-1.2793 0,0 -0.87109,-0.40625 -1.27734,-0.40625 -0.40723,0 -1.51075,0.29101 -2.84864,-1.85938 0,0 -0.17285,-0.92968 -0.17285,-1.10351 0,-0.17383 -0.11719,-1.2207 -0.34961,-0.93067 -0.23242,0.29102 -1.85937,2.26661 -2.26562,2.73145 -0.40821,0.46582 -0.52344,1.22266 -1.62891,0.98828 -1.10351,-0.23242 -1.97558,0.58008 -2.26562,0.34961 -0.29004,-0.23437 -0.98731,-0.23437 -0.98731,-0.4668 0,-0.23242 0.2334,-1.45117 0.2334,-1.80078 0,-0.34765 -0.11816,-0.52344 -0.1748,-0.69726 -0.0586,-0.17383 -0.2334,-0.8711 -0.69825,-0.46485 -0.46484,0.40625 -0.58203,1.74414 -0.92968,1.10449 -0.34961,-0.63964 -0.75586,-0.81347 -0.63965,-0.9873 0.11621,-0.17578 0,-0.34961 -0.11621,-0.69922 -0.11524,-0.34765 0.23242,-0.52246 -0.23145,-0.63769 -0.46582,-0.11621 -2.03418,-1.91797 -2.20801,-2.61621 -0.17578,-0.69727 -1.33789,-1.56836 -0.81445,-1.85938 0.52344,-0.29004 0.52344,-0.34766 0.34961,-0.69727 0,0 -0.4082,-0.23242 -0.69824,-0.23242 0,0 -0.79395,0 -0.98828,0.42774 -0.19336,0.42383 -0.542,1.35351 -1.23926,1.23828 -0.69727,-0.11621 -2.01465,0.19336 -2.9834,-0.6582 -0.96777,-0.85352 -2.79004,-2.28614 -3.06152,-2.51758 -0.26953,-0.23242 -1.43262,-0.81446 -1.62696,-1.00782 -0.19336,-0.19335 -1.74218,-1.12402 -2.71093,-1.04687 -0.96875,0.0781 -2.90625,0.96875 -3.06055,0.96875 -0.15625,0 1.16113,1.74414 1.16113,1.74414 0,0 -0.11523,-0.0391 -0.30957,0.30859 -0.19336,0.34864 -0.61914,0.58204 -0.85156,0.58204 -0.23242,0 -0.54297,0.0381 -0.61914,0.15429 -0.0781,0.11719 -0.58203,1.125 -1.16406,1.04688 -0.58008,-0.0781 -1.60743,-0.19336 -1.60743,-0.19336 z"
           id="path3557"
           style="fill:#ffffff;fill-opacity:1;fill-rule:nonzero;stroke:none" /><path
           d="m 583.30566,-103.47949 c 0,0 -0.34863,1.56836 -0.63867,1.85937 0,0 0.46485,0 0.63867,0.17383 0.17481,0.17578 1.86036,3.08008 1.91797,3.48633 0.0586,0.4082 0.40723,0.29101 0.34864,0.58203 0,0 1.10449,1.10352 0.75488,1.51172 0,0 0.11719,1.10254 0.29101,1.10254 0.17383,0 2.44141,0.87207 2.38282,3.60351 0,0 -0.0576,0.75489 0.0586,1.1045 0,0 -0.17383,0.75488 0.29102,1.16211 0,0 0.9873,1.45117 1.74218,1.68554 0,0 1.16309,1.39453 1.16309,1.85938 0,0 0.34863,0.87109 0.40625,1.04492 0,0 0.63965,0.98828 1.2207,1.22168 0,0 0,0.58105 0.46387,0.92871 0,0 0.20898,0.53125 0.33398,1.08398 0.0937,0.41504 0.14063,0.8418 0.0156,1.06641 0,0 0.0586,1.2207 0.29101,1.74414 0,0 0.23145,1.04492 0.40625,1.33594 0,0 0.23243,0.69726 0.0586,0.98828 0,0 0.29004,1.16211 0.87207,1.16211 0,0 0.63769,0.52344 1.74219,-0.23242 0,0 1.27832,-0.34961 1.56933,-0.75489 0,0 2.49903,-0.52343 3.19531,-0.98925 0.69922,-0.46485 1.68555,-0.34668 2.3252,-1.10352 0,0 1.16309,-0.63867 1.56934,-0.69726 0.40722,-0.0586 3.48632,-1.33594 3.60351,-1.56836 0.11524,-0.23243 -0.46582,-1.04688 0.81348,-1.56934 0,0 2.03418,-0.81348 2.32324,-0.98926 0.29004,-0.17383 1.04688,0.40723 1.39551,-0.05664 0.34863,-0.46484 0.2334,-1.50976 0.75488,-1.68555 0.52344,-0.17382 1.62793,0.11524 1.80274,-1.2207 0,-0.58105 1.21972,-0.81445 1.62793,-0.87109 0.40527,-0.0586 -0.2334,-0.81446 -0.17481,-1.22168 0.0576,-0.40528 0.34766,-2.32324 0.75391,-1.39356 0.40625,0.52344 0.58203,-0.63965 0.58203,-0.63965 0,0 1.10351,-1.56933 1.2207,-1.80078 0.11524,-0.23339 0.58106,-1.68652 0,-1.3955 -0.58105,0.29101 -1.33789,-1.2793 -1.33789,-1.2793 0,0 -0.87109,-0.40625 -1.27734,-0.40625 -0.40723,0 -1.51075,0.29101 -2.84864,-1.85938 0,0 -0.17285,-0.92968 -0.17285,-1.10351 0,-0.17383 -0.11719,-1.2207 -0.34961,-0.93067 -0.23242,0.29102 -1.85937,2.26661 -2.26562,2.73145 -0.40821,0.46582 -0.52344,1.22266 -1.62891,0.98828 -1.10351,-0.23242 -1.97558,0.58008 -2.26562,0.34961 -0.29004,-0.23437 -0.98731,-0.23437 -0.98731,-0.4668 0,-0.23242 0.2334,-1.45117 0.2334,-1.80078 0,-0.34765 -0.11816,-0.52344 -0.1748,-0.69726 -0.0586,-0.17383 -0.2334,-0.8711 -0.69825,-0.46485 -0.46484,0.40625 -0.58203,1.74414 -0.92968,1.10449 -0.34961,-0.63964 -0.75586,-0.81347 -0.63965,-0.9873 0.11621,-0.17578 0,-0.34961 -0.11621,-0.69922 -0.11524,-0.34765 0.23242,-0.52246 -0.23145,-0.63769 -0.46582,-0.11621 -2.03418,-1.91797 -2.20801,-2.61621 -0.17578,-0.69727 -1.33789,-1.56836 -0.81445,-1.85938 0.52344,-0.29004 0.52344,-0.34766 0.34961,-0.69727 0,0 -0.4082,-0.23242 -0.69824,-0.23242 0,0 -0.79395,0 -0.98828,0.42774 -0.19336,0.42383 -0.542,1.35351 -1.23926,1.23828 -0.69727,-0.11621 -2.01465,0.19336 -2.9834,-0.6582 -0.96777,-0.85352 -2.79004,-2.28614 -3.06152,-2.51758 -0.26953,-0.23242 -1.43262,-0.81446 -1.62696,-1.00782 -0.19336,-0.19335 -1.74218,-1.12402 -2.71093,-1.04687 -0.96875,0.0781 -2.90625,0.96875 -3.06055,0.96875 -0.15625,0 1.16113,1.74414 1.16113,1.74414 0,0 -0.11523,-0.0391 -0.30957,0.30859 -0.19336,0.34864 -0.61914,0.58204 -0.85156,0.58204 -0.23242,0 -0.54297,0.0381 -0.61914,0.15429 -0.0781,0.11719 -0.58203,1.125 -1.16406,1.04688 -0.58008,-0.0781 -1.60743,-0.19336 -1.60743,-0.19336 z"
           id="path3559"
           style="fill:none;stroke:#00a650;stroke-width:0.24409;stroke-linecap:butt;stroke-linejoin:miter;stroke-miterlimit:4;stroke-dasharray:none;stroke-opacity:1" /><path
           d="m 594.68066,-81.06934 c 0,0 0.77149,-0.32812 0.77149,-0.56054 0,-0.23242 -0.0781,-1.35547 0.34765,-1.35547 0.42579,0 0.85352,0.15527 1.04688,0.15527 0.19336,0 1.85937,-0.07812 2.01367,0 0.15528,0.07617 2.09375,0.34863 2.3252,0.15332 0.23144,-0.19238 0.23144,0.89258 0.85254,0.54395 0.61914,-0.34864 0.69726,-1.00684 0.92968,-1.24121 0.23243,-0.23243 1.20118,-1.27735 1.74317,-1.50977 0.54199,-0.23242 4.76562,-0.77441 5.15234,-1.08496 0.3877,-0.30957 4.33887,-1.78223 4.61035,-2.09082 0.27149,-0.31055 0.69727,-3.44922 0.69727,-3.44922 0,0 -0.77442,-1.08398 -0.77442,-1.08398 0,0 -0.38769,0.07714 -0.93066,0 -0.54102,-0.07813 -3.29199,-0.19532 -3.29199,-0.19532 0,0 -1.47168,-1.85937 -1.47168,-1.85937"
           id="path3561"
           style="fill:#ffffff;fill-opacity:1;fill-rule:nonzero;stroke:none" /><path
           d="m 594.68066,-81.06934 c 0,0 0.77149,-0.32812 0.77149,-0.56054 0,-0.23242 -0.0781,-1.35547 0.34765,-1.35547 0.42579,0 0.85352,0.15527 1.04688,0.15527 0.19336,0 1.85937,-0.07812 2.01367,0 0.15528,0.07617 2.09375,0.34863 2.3252,0.15332 0.23144,-0.19238 0.23144,0.89258 0.85254,0.54395 0.61914,-0.34864 0.69726,-1.00684 0.92968,-1.24121 0.23243,-0.23243 1.20118,-1.27735 1.74317,-1.50977 0.54199,-0.23242 4.76562,-0.77441 5.15234,-1.08496 0.3877,-0.30957 4.33887,-1.78223 4.61035,-2.09082 0.27149,-0.31055 0.69727,-3.44922 0.69727,-3.44922 0,0 -0.77442,-1.08398 -0.77442,-1.08398 0,0 -0.38769,0.07714 -0.93066,0 -0.54102,-0.07813 -3.29199,-0.19532 -3.29199,-0.19532 0,0 -1.47168,-1.85937 -1.47168,-1.85937"
           id="path3563"
           style="fill:none;stroke:#00a650;stroke-width:0.24409;stroke-linecap:butt;stroke-linejoin:miter;stroke-miterlimit:4;stroke-dasharray:none;stroke-opacity:1" /><path
           d="m 615.90723,-96.73926 c 0,0 -0.0381,0.23242 -0.1543,0.31055 -0.11719,0.07812 -0.3877,0.30957 -0.3877,0.1543 0,-0.1543 -0.2705,-0.30957 -0.2705,-0.07618 0,0.23145 0,0.65821 0.0762,0.81348 0.0762,0.15332 0.42578,0.42481 0.0391,0.58008 -0.38574,0.15527 -0.46484,0.19336 -0.46484,0.30957 0,0.11719 -0.34864,1.24023 -0.34864,1.5498 0,0.30957 0,0.50489 0,0.50489"
           id="path3565"
           style="fill:#ffffff;fill-opacity:1;fill-rule:nonzero;stroke:none" /><path
           d="m 615.90723,-96.73926 c 0,0 -0.0381,0.23242 -0.1543,0.31055 -0.11719,0.07812 -0.3877,0.30957 -0.3877,0.1543 0,-0.1543 -0.2705,-0.30957 -0.2705,-0.07618 0,0.23145 0,0.65821 0.0762,0.81348 0.0762,0.15332 0.42578,0.42481 0.0391,0.58008 -0.38574,0.15527 -0.46484,0.19336 -0.46484,0.30957 0,0.11719 -0.34864,1.24023 -0.34864,1.5498 0,0.30957 0,0.50489 0,0.50489"
           id="path3567"
           style="fill:none;stroke:#00a650;stroke-width:0.24409;stroke-linecap:butt;stroke-linejoin:miter;stroke-miterlimit:4;stroke-dasharray:none;stroke-opacity:1" /><path
           d="m 609.78613,-85.85254 c 0,0 2.01563,3.75781 2.01563,3.75781"
           id="path3569"
           style="fill:#ffffff;fill-opacity:1;fill-rule:nonzero;stroke:none" /><path
           d="m 609.78613,-85.85254 c 0,0 2.01563,3.75781 2.01563,3.75781"
           id="path3571"
           style="fill:none;stroke:#00a650;stroke-width:0.24409;stroke-linecap:butt;stroke-linejoin:miter;stroke-miterlimit:4;stroke-dasharray:none;stroke-opacity:1" /><path
           d="m 600.41016,-102.82129 c 0,0 0.77539,0.0762 0.96875,0.11621 0.19433,0.0381 0.65918,0 0.73535,0.30957 0.0781,0.31055 0.46679,0.65821 1.16308,0.50391"
           id="path3573"
           style="fill:#ffffff;fill-opacity:1;fill-rule:nonzero;stroke:none" /><path
           d="m 600.41016,-102.82129 c 0,0 0.77539,0.0762 0.96875,0.11621 0.19433,0.0381 0.65918,0 0.73535,0.30957 0.0781,0.31055 0.46679,0.65821 1.16308,0.50391"
           id="path3575"
           style="fill:none;stroke:#00a650;stroke-width:0.24409;stroke-linecap:butt;stroke-linejoin:miter;stroke-miterlimit:4;stroke-dasharray:none;stroke-opacity:1" /><path
           d="m 607.19043,-96.85449 c 0,0 0,0.77344 0.19434,1.04492 0.19336,0.27246 0.38769,0.50391 0.65722,0.31055 0.27149,-0.19336 0.38867,-0.31055 0.38867,-0.31055"
           id="path3577"
           style="fill:#ffffff;fill-opacity:1;fill-rule:nonzero;stroke:none" /><path
           d="m 607.19043,-96.85449 c 0,0 0,0.77344 0.19434,1.04492 0.19336,0.27246 0.38769,0.50391 0.65722,0.31055 0.27149,-0.19336 0.38867,-0.31055 0.38867,-0.31055"
           id="path3579"
           style="fill:none;stroke:#00a650;stroke-width:0.24409;stroke-linecap:butt;stroke-linejoin:miter;stroke-miterlimit:4;stroke-dasharray:none;stroke-opacity:1" /><path
           d="m 570.56348,-99.33691 c 0.0215,0.0059 0.0454,0.0205 0.0723,0.04101 0.0342,0.02832 0.0635,0.03906 0.0752,0.04785 0.0156,0.06641 0.0186,0.14942 9.7e-4,0.24317 -0.0142,0.0791 -0.0298,0.16211 -0.0454,0.24609 -0.0864,0.28516 -0.12011,0.5 -0.10156,0.65137 0,0 0.009,0.02051 0.009,0.02051 0.0357,0.0039 0.20557,0.002 0.5083,-0.0088 0.20606,-0.0039 0.37647,0.0078 0.50635,0.03808 0.1333,0.03223 0.24853,0.08399 0.35254,0.16211 0.0107,0.03125 0.0171,0.04297 0.0195,0.03418 0,0 -1.49756,0.01074 -1.49756,0.01074 -0.0835,-0.03515 -0.14209,-0.09277 -0.17725,-0.17382 -0.0454,-0.09766 -0.061,-0.22266 -0.0351,-0.36719 0.0234,-0.13574 0.0498,-0.26563 0.0776,-0.39942 -0.11573,0.04493 -0.21094,0.10059 -0.27247,0.16797 -0.0186,0.02051 -0.0283,0.042 -0.0337,0.06446 -0.0122,0.05078 4.9e-4,0.1123 0.0312,0.19238 0.0488,0.11816 0.0742,0.18262 0.0732,0.1875 -0.20556,-0.01563 -0.35498,-0.19141 -0.4414,-0.5332 0.31152,-0.25586 0.58545,-0.4668 0.8291,-0.62696 0.0142,-0.0019 0.0322,-0.0019 0.0493,0.002 z"
           id="path3581"
           style="fill:#2e3192;fill-opacity:1;fill-rule:nonzero;stroke:none" /><path
           d="m 571.0625,-99.91699 c -0.004,0.09179 -0.0308,0.15429 -0.0811,0.18359 -0.0596,0.04688 -0.12012,0.04883 -0.18165,0.0059 -0.0532,-0.03906 -0.0737,-0.09473 -0.0674,-0.16699 0.01,-0.08106 0.0425,-0.12988 0.0928,-0.15918 0.0503,-0.0303 0.10791,-0.0234 0.17675,0.0117 0.042,0.0117 0.063,0.05273 0.0606,0.125 z"
           id="path3583"
           style="fill:#2e3192;fill-opacity:1;fill-rule:nonzero;stroke:none" /><path
           d="m 571.38037,-101.91504 c 0.0215,0.008 0.0435,0.0254 0.0684,0.0488 0.0317,0.0312 0.0596,0.0449 0.0703,0.0547 0.01,0.0684 0.005,0.15039 -0.0215,0.24121 -0.0215,0.0772 -0.0449,0.15918 -0.0679,0.24121 -0.11231,0.27637 -0.16602,0.48828 -0.16114,0.63867 0,0 0.006,0.0234 0.006,0.0234 0.0357,0.006 0.2041,0.0186 0.50733,0.0371 0.20556,0.0156 0.37353,0.042 0.49951,0.085 0.12988,0.0439 0.24023,0.10644 0.33642,0.19433 0.008,0.0332 0.0132,0.0449 0.0161,0.0352 0,0 -1.49121,-0.12793 -1.49121,-0.12793 -0.0796,-0.042 -0.13282,-0.10449 -0.16065,-0.18945 -0.0356,-0.10157 -0.0396,-0.22754 -4.9e-4,-0.36914 0.0356,-0.13282 0.0737,-0.25879 0.11377,-0.39063 -0.11963,0.0342 -0.21972,0.0801 -0.28711,0.1416 -0.02,0.0176 -0.0322,0.0391 -0.0395,0.0615 -0.0171,0.0498 -0.01,0.1123 0.0137,0.19433 0.0376,0.12305 0.0571,0.18946 0.0557,0.19336 -0.20361,-0.0342 -0.33594,-0.22363 -0.39111,-0.57226 0.33447,-0.22461 0.62695,-0.41016 0.88427,-0.54688 0.0142,0 0.0322,9.8e-4 0.0488,0.006 z"
           id="path3585"
           style="fill:#2e3192;fill-opacity:1;fill-rule:nonzero;stroke:none" /><path
           d="m 571.9209,-102.4209 c -0.0122,0.0918 -0.0444,0.15039 -0.0972,0.17578 -0.064,0.041 -0.12402,0.0371 -0.18164,-0.01 -0.0488,-0.0449 -0.0649,-0.10157 -0.0513,-0.17285 0.0166,-0.0791 0.0537,-0.12598 0.10645,-0.15137 0.0527,-0.0244 0.10986,-0.0127 0.17431,0.0283 0.0415,0.0166 0.0586,0.0586 0.0493,0.12988 z"
           id="path3587"
           style="fill:#2e3192;fill-opacity:1;fill-rule:nonzero;stroke:none" /><path
           d="m 573.01367,-104.51074 c 0.10156,0.0977 0.17432,0.21777 0.20899,0.36719 0.0327,0.15429 0.0254,0.30078 -0.0147,0.44433 -0.0435,0.15137 -0.0874,0.28125 -0.13233,0.37988 -0.13867,0.31055 -0.3247,0.48633 -0.55468,0.53321 -0.0996,0.008 -0.19434,-0.01 -0.2876,-0.0508 -0.18604,-0.084 -0.35352,-0.2627 -0.50684,-0.53809 -0.0205,-0.0615 -0.0293,-0.0967 -0.0273,-0.10059 0.003,-0.009 0.0117,-0.0156 0.0259,-0.0254 0.01,0.0108 0.0771,0.0762 0.20605,0.21289 0.0894,0.0918 0.16895,0.15235 0.23731,0.1836 0.10156,0.0449 0.20361,0.0449 0.30517,0.002 0.1294,-0.0713 0.23535,-0.19922 0.31836,-0.38476 0.0776,-0.17286 0.12647,-0.36817 0.14697,-0.58594 0.0132,-0.13867 -0.0107,-0.24805 -0.064,-0.32422 -0.0874,-0.0547 -0.19629,-0.082 -0.32715,-0.084 -0.10596,-0.002 -0.21582,0.006 -0.33056,0.0117 -0.0371,-0.0576 -0.0889,-0.14843 -0.15333,-0.27539 0.0635,-0.0449 0.16944,-0.0644 0.31446,-0.0508 0,0 0.15478,0.0117 0.15478,0.0117 0,0 0.30274,0.11621 0.30274,0.11621 0.0449,0.0303 0.10156,0.0869 0.17773,0.15723 z"
           id="path3589"
           style="fill:#2e3192;fill-opacity:1;fill-rule:nonzero;stroke:none" /><path
           d="m 572.6001,-104.90137 c 0.009,-0.0644 0.0225,-0.11133 0.0298,-0.13379 0.005,-0.04 -0.0166,-0.0732 -0.064,-0.0967 -0.0669,-0.0352 -0.10449,-0.0508 -0.10987,-0.0586 -0.0151,-0.0664 -0.0308,-0.16992 -0.0513,-0.30371 0.0425,-0.005 0.082,0.006 0.11718,0.0244 0.0357,0.0186 0.0703,0.0469 0.10498,0.0869 0.0322,0.043 0.0669,0.083 0.0933,0.11816 0,0 0.0552,-0.0195 0.0552,-0.0195 0,0 0.21191,-0.40625 0.21191,-0.40625 -0.0107,-0.0156 -0.0244,-0.0283 -0.0361,-0.0352 -0.0122,-0.006 -0.0361,-0.008 -0.064,-0.0117 -0.0303,0 -0.0503,0 -0.0562,0.002 -0.0239,-0.002 -0.042,-0.006 -0.062,-0.0156 -0.0347,-0.0186 -0.0591,-0.0684 -0.0772,-0.14648 -0.0278,-0.11133 -0.041,-0.1709 -0.0469,-0.17969 0,0 0.0151,-0.0293 0.0151,-0.0293 0.12597,0.008 0.25097,0.0469 0.38086,0.11426 0.12597,0.0654 0.2207,0.1416 0.28711,0.23535 0.0103,0.0859 -0.008,0.17676 -0.0542,0.27539 0.002,-0.004 -0.0415,0.0801 -0.13575,0.25977 0,0 -0.0117,-0.006 -0.0117,-0.006 -0.022,0.041 -0.0581,0.0811 -0.104,0.12109 -0.0479,0.0439 -0.0977,0.082 -0.1416,0.11719 0.0264,0.084 0.007,0.20703 -0.0562,0.36524 0,0 -0.2627,-0.1377 -0.2627,-0.1377 0.0151,-0.0293 0.0288,-0.0752 0.0381,-0.13965 z m -0.61865,-0.60644 c -0.0752,0.04 -0.18311,0.1123 -0.31983,0.21093 -0.003,0.0244 0.0112,0.0654 0.0449,0.11426 0.0361,0.0557 0.0464,0.0937 0.0357,0.11524 -0.007,0.0117 -0.0254,0.0293 -0.0562,0.0391 -0.062,0.043 -0.16456,0.085 -0.29493,0.13379 -0.0386,-0.042 -0.0718,-0.11231 -0.10351,-0.21387 0.0332,-0.0254 0.0874,-0.0615 0.16162,-0.10742 0.0786,-0.0449 0.13183,-0.0801 0.16504,-0.10547 4.9e-4,-0.0107 -0.0195,-0.0586 -0.0581,-0.13672 -0.0239,-0.0508 -0.0283,-0.0898 -0.004,-0.125 0.0674,-0.0342 0.16845,-0.0937 0.30908,-0.17969 0.0454,0.0547 0.0854,0.14063 0.12061,0.25489 z m -0.6294,-0.01 c 0.02,0.0478 0.0381,0.0889 0.0503,0.13281 -0.0869,0.0615 -0.18994,0.11426 -0.30029,0.16309 -0.0356,-0.0195 -0.0786,-0.0898 -0.12549,-0.20996 0,0 0.0132,-0.0244 0.0132,-0.0244 0,0 0.2832,-0.14063 0.2832,-0.14063 0.0317,0.006 0.0586,0.0312 0.0791,0.0791 z"
           id="path3591"
           style="fill:#2e3192;fill-opacity:1;fill-rule:nonzero;stroke:none" /><path
           d="m 573.85156,-107.83105 c -0.019,-0.0117 -0.0493,-0.0215 -0.0981,-0.0352 -0.0513,-0.01 -0.0825,-0.0195 -0.10108,-0.0312 0,0 -0.10156,-0.0147 -0.10156,-0.0147 0.008,0.0947 0.01,0.23047 0.004,0.41309 0.125,-0.0156 0.23779,-0.10059 0.33154,-0.24805 0.007,-0.0352 -0.005,-0.0654 -0.0352,-0.084 z m 0.54834,0.13867 c -0.0488,0.002 -0.10498,0 -0.17285,-0.01 -0.0913,-0.0137 -0.14892,-0.0234 -0.17529,-0.0225 0.0137,0.0361 0.023,0.0713 0.0366,0.10645 0.0137,0.0371 0.0166,0.0723 9.8e-4,0.0967 -0.01,0.0332 -0.0254,0.0566 -0.0405,0.081 -0.0942,0.14648 -0.24219,0.25391 -0.44141,0.31055 -0.12744,-0.0645 -0.2124,-0.18653 -0.24512,-0.36524 -0.0181,-0.0781 -0.0249,-0.24023 -0.0322,-0.47461 -0.0337,-0.004 -0.0654,-0.0137 -0.0913,-0.0293 -0.0337,-0.0225 -0.0718,-0.0693 -0.10742,-0.13672 -0.0391,-0.0703 -0.0713,-0.11914 -0.0986,-0.14258 0,0 0.008,-0.0117 0.008,-0.0117 0.20947,0.084 0.42138,0.16406 0.63086,0.24805 0.25146,0.0996 0.47265,0.14062 0.66308,0.12304 0.0151,0.01 0.0786,-0.0732 0.19385,-0.25195 0,0 0.25,0.16016 0.25,0.16016 -0.12012,0.18652 -0.24512,0.29101 -0.37842,0.31836 z m -1.45117,-0.88086 c -0.0273,0.0332 -0.0727,0.0713 -0.14404,0.10937 -0.0723,0.0381 -0.12403,0.0781 -0.15039,0.11133 -0.004,0.0137 0.0102,0.0566 0.041,0.11524 0.0205,0.043 0.0181,0.0801 -0.0102,0.10742 0,0 -0.34229,0.15625 -0.34229,0.15625 -0.02,-0.0195 -0.0615,-0.10157 -0.1289,-0.25196 0.0371,-0.0322 0.0962,-0.0674 0.17187,-0.10254 0.0757,-0.0361 0.13233,-0.0674 0.16406,-0.0918 -0.003,-0.0186 -0.0171,-0.0557 -0.0527,-0.10645 -0.0288,-0.0459 -0.0342,-0.0781 -0.0166,-0.10547 0.008,-0.0117 0.019,-0.0215 0.0342,-0.0293 0,0 0.29004,-0.15625 0.29004,-0.15625 0.0483,0.0312 0.0967,0.11328 0.14404,0.24414 z"
           id="path3593"
           style="fill:#2e3192;fill-opacity:1;fill-rule:nonzero;stroke:none" /><path
           d="m 575.9624,-108.52734 c -0.0498,0.0342 -0.15234,0.0957 -0.30859,0.18261 -4.9e-4,0.0166 0.005,0.0547 0.0215,0.11817 0.0166,0.0459 0.0122,0.083 -0.0156,0.11523 0,0 -0.3252,0.14356 -0.3252,0.14356 -0.0254,-0.0176 -0.0474,-0.0566 -0.0649,-0.10938 -0.0122,-0.0361 -0.0254,-0.0801 -0.0386,-0.12305 0,0 0.0161,-0.0234 0.0161,-0.0234 0,0 0.29785,-0.17383 0.29785,-0.17383 0.004,-0.0137 -0.008,-0.0508 -0.0342,-0.11524 -0.0166,-0.0449 -0.0186,-0.0811 -0.005,-0.10058 0.0132,-0.0205 0.041,-0.0293 0.0825,-0.0342 0.0635,-0.0371 0.1582,-0.0811 0.28369,-0.13086 0,0 0.0903,0.25098 0.0903,0.25098 z m -0.44922,-0.55762 c 0,0 -0.78125,1.13086 -0.78125,1.13086 0,0 -0.24414,-0.16797 -0.24414,-0.16797 0,0 0.57959,-0.83984 0.57959,-0.83984 -0.003,-0.0195 -0.0117,-0.0371 -0.0303,-0.0498 -0.0107,-0.007 -0.0283,-0.0137 -0.0493,-0.0225 -0.0234,-0.005 -0.041,-0.0117 -0.0517,-0.0185 0,0 -0.30274,-0.0137 -0.30274,-0.0137 0,0 -0.19678,-0.30761 -0.19678,-0.30761 0.0532,-0.0156 0.1836,-0.0176 0.38965,0.004 0.26709,0.0586 0.46436,0.13184 0.58838,0.21778 0,0 0.0986,0.0674 0.0986,0.0674 z"
           id="path3595"
           style="fill:#2e3192;fill-opacity:1;fill-rule:nonzero;stroke:none" /><path
           d="m 575.9082,-110.54199 c -0.0923,0.0195 -0.15332,0.0557 -0.18652,0.11328 -0.0205,0.0488 -0.0127,0.15625 0.0156,0.31543 0.16993,-0.0547 0.292,-0.13379 0.36963,-0.23535 0.0254,-0.0332 0.0508,-0.0742 0.0659,-0.11524 -0.04,-0.043 -0.12695,-0.0684 -0.26465,-0.0781 z m 0.35596,0.46875 c -0.14111,0.1123 -0.26611,0.19531 -0.36865,0.24121 -0.0249,0.1709 -0.16651,0.43652 -0.42285,0.79394 0,0 -0.23584,-0.18066 -0.23584,-0.18066 0.29882,-0.35449 0.42968,-0.63477 0.39013,-0.83691 -0.042,-0.0918 -0.084,-0.18262 -0.12256,-0.27832 -0.0474,-0.11329 -0.0474,-0.21485 -0.008,-0.30372 0.0757,-0.0898 0.18799,-0.13476 0.33252,-0.14257 0.0708,-0.006 0.18945,0.008 0.35791,0.0352 0.085,0.042 0.15088,0.0801 0.19336,0.11328 0.0596,0.0449 0.11768,0.10157 0.17969,0.17286 0,0 -0.2959,0.38574 -0.2959,0.38574 z"
           id="path3597"
           style="fill:#2e3192;fill-opacity:1;fill-rule:nonzero;stroke:none" /><path
           d="m 577.40332,-111.44531 c 0,0 -0.88769,1.0498 -0.88769,1.0498 0,0 -0.22657,-0.1914 -0.22657,-0.1914 0,0 0.65869,-0.7793 0.65869,-0.7793 -9.7e-4,-0.0195 -0.009,-0.0391 -0.0259,-0.0527 -0.01,-0.009 -0.0264,-0.0166 -0.0464,-0.0273 -0.023,-0.007 -0.0395,-0.0146 -0.0498,-0.0234 0,0 -0.30029,-0.043 -0.30029,-0.043 0,0 -0.16553,-0.32617 -0.16553,-0.32617 0.0547,-0.009 0.18506,0.002 0.3877,0.043 0.25976,0.084 0.44922,0.17578 0.56445,0.27344 0,0 0.0913,0.0771 0.0913,0.0771 z m -1.48437,-0.71582 c 0.0298,0.0684 0.0415,0.1084 0.0488,0.12109 0,0 -0.005,0.0332 -0.005,0.0332 -0.13574,0.0703 -0.26855,0.125 -0.40576,0.16407 0,0 -0.0898,-0.24414 -0.0898,-0.24414 0.0688,-0.0469 0.19531,-0.10059 0.38281,-0.16407 0.0268,0.0156 0.0508,0.043 0.0688,0.0898 z"
           id="path3599"
           style="fill:#2e3192;fill-opacity:1;fill-rule:nonzero;stroke:none" /><path
           d="m 578.30371,-112.4209 c 0,0 -0.93115,1.00977 -0.93115,1.00977 0,0 -0.21826,-0.20117 -0.21826,-0.20117 0,0 0.69091,-0.74903 0.69091,-0.74903 0,-0.0195 -0.007,-0.0381 -0.0234,-0.0537 -0.009,-0.009 -0.0254,-0.0176 -0.0454,-0.0293 -0.0225,-0.008 -0.0391,-0.0166 -0.0483,-0.0254 0,0 -0.29737,-0.0566 -0.29737,-0.0566 0,0 -0.15234,-0.33203 -0.15234,-0.33203 0.0552,-0.008 0.18457,0.01 0.38525,0.0596 0.25586,0.0947 0.44141,0.19434 0.55225,0.29688 0,0 0.0879,0.081 0.0879,0.081 z m -1.11621,-0.90723 c 0.0195,0.0498 0.0293,0.0986 0.0269,0.14063 0,0 -0.31885,0.12988 -0.31885,0.12988 -0.0225,0.0244 -0.0254,0.0606 -0.0122,0.11719 0.0137,0.0586 0.0137,0.0898 -0.002,0.10742 -0.003,0.004 -0.0127,0.008 -0.0225,0.0117 0,0 -0.36426,0.12012 -0.36426,0.12012 -0.0264,-0.0303 -0.0396,-0.0752 -0.0591,-0.13184 -0.0137,-0.0449 -0.0269,-0.0889 -0.04,-0.13281 0.0386,-0.0225 0.0991,-0.0498 0.17676,-0.0752 0.084,-0.0254 0.1416,-0.0488 0.17382,-0.0713 0.003,-0.0225 -4.8e-4,-0.0645 -0.0142,-0.12793 -0.01,-0.0479 -0.003,-0.0811 0.022,-0.10254 0,0 0.3706,-0.10059 0.3706,-0.10059 0.0332,0.0488 0.0527,0.0869 0.063,0.11523 z"
           id="path3601"
           style="fill:#2e3192;fill-opacity:1;fill-rule:nonzero;stroke:none" /><path
           d="m 578.98682,-113.10254 c 0,0 -0.72852,0.73438 -0.72852,0.73438 0,0 -0.21094,-0.20899 -0.21094,-0.20899 0,0 0.59571,-0.60058 0.59571,-0.60058 0,0 -0.0278,-0.0479 -0.0278,-0.0479 -0.15722,-0.14941 -0.37255,-0.32226 -0.6455,-0.5205 -0.36084,-0.26465 -0.5791,-0.42871 -0.66114,-0.49024 0,0 0.0249,-0.42676 0.0249,-0.42676 0.50195,0.41211 1.01318,0.8711 1.52636,1.38086 0.0811,0.0801 0.12159,0.14063 0.12696,0.17969 z"
           id="path3603"
           style="fill:#2e3192;fill-opacity:1;fill-rule:nonzero;stroke:none" /><path
           d="m 579.68896,-113.76563 c 0,0 -0.72949,0.68555 -0.72949,0.68555 0,0 -0.20312,-0.2168 -0.20312,-0.2168 0,0 0.61621,-0.57714 0.61621,-0.57714 0,0 -0.0259,-0.0488 -0.0259,-0.0488 -0.15234,-0.15528 -0.36084,-0.33692 -0.62598,-0.54395 -0.35156,-0.27832 -0.56396,-0.44922 -0.64404,-0.51465 0,0 0.0396,-0.42578 0.0396,-0.42578 0.48828,0.42969 0.98193,0.90821 1.47608,1.43555 0.0727,0.0781 0.104,0.14453 0.0967,0.20605 z"
           id="path3605"
           style="fill:#2e3192;fill-opacity:1;fill-rule:nonzero;stroke:none" /><path
           d="m 580.80127,-115.62012 c -0.0142,-0.0176 -0.0405,-0.0352 -0.0825,-0.0644 -0.0454,-0.0254 -0.0723,-0.043 -0.0864,-0.0606 0,0 -0.0918,-0.0449 -0.0918,-0.0449 -0.0225,0.0918 -0.0625,0.22168 -0.12451,0.39258 0.12353,0.0254 0.25683,-0.0205 0.39257,-0.13086 0.0176,-0.0312 0.0156,-0.0645 -0.007,-0.0918 z m 0.47852,0.30274 c -0.0474,-0.0137 -0.1001,-0.0332 -0.16114,-0.0635 -0.0825,-0.041 -0.13476,-0.0674 -0.15967,-0.0752 10e-4,0.0381 -4.8e-4,0.0742 9.8e-4,0.11328 10e-4,0.0391 -0.007,0.0742 -0.0288,0.0918 -0.0195,0.0273 -0.042,0.0449 -0.064,0.0635 -0.13526,0.11035 -0.30957,0.16602 -0.5166,0.1582 -0.10108,-0.10156 -0.14356,-0.24316 -0.11963,-0.42285 0.008,-0.081 0.0517,-0.23633 0.11718,-0.46094 -0.0298,-0.0156 -0.0571,-0.0332 -0.0767,-0.0586 -0.0254,-0.0303 -0.0474,-0.0879 -0.0596,-0.16211 -0.0156,-0.0791 -0.0308,-0.13476 -0.0498,-0.16601 0,0 0.0112,-0.008 0.0112,-0.008 0.17285,0.14453 0.34912,0.28614 0.52246,0.43164 0.2085,0.17285 0.40576,0.28125 0.59277,0.32227 0.0107,0.0137 0.0972,-0.0449 0.26123,-0.17871 0,0 0.18799,0.23047 0.18799,0.23047 -0.17236,0.13965 -0.32373,0.20019 -0.458,0.18457 z m -1.10596,-1.28907 c -0.0356,0.0234 -0.0908,0.0449 -0.1709,0.0586 -0.0801,0.0147 -0.1416,0.0361 -0.17773,0.0586 -0.008,0.0137 -0.007,0.0586 0.003,0.12403 0.007,0.0459 -0.007,0.081 -0.0425,0.0967 0,0 -0.37353,0.043 -0.37353,0.043 -0.0132,-0.0234 -0.0269,-0.11523 -0.0444,-0.27929 0.0449,-0.0195 0.1128,-0.0332 0.19483,-0.0449 0.083,-0.01 0.14648,-0.0215 0.18408,-0.0352 0.003,-0.0195 10e-4,-0.0586 -0.0171,-0.11719 -0.0122,-0.0527 -0.008,-0.085 0.0181,-0.10547 0.0107,-0.01 0.0244,-0.0156 0.041,-0.0176 0,0 0.32422,-0.0576 0.32422,-0.0576 0.0366,0.0439 0.0566,0.13672 0.0605,0.27636 z"
           id="path3607"
           style="fill:#2e3192;fill-opacity:1;fill-rule:nonzero;stroke:none" /><path
           d="m 583.01807,-115.5918 c -0.0591,0.0156 -0.17481,0.042 -0.35157,0.0733 -0.006,0.0156 -0.0132,0.0537 -0.0181,0.11816 9.7e-4,0.0498 -0.0147,0.083 -0.0513,0.10449 0,0 -0.35401,0.0312 -0.35401,0.0312 -0.0186,-0.0254 -0.0268,-0.0684 -0.0273,-0.12305 9.8e-4,-0.0391 0.002,-0.085 0.004,-0.13085 0,0 0.0229,-0.0156 0.0229,-0.0156 0,0 0.3374,-0.0684 0.3374,-0.0684 0.008,-0.0137 0.009,-0.0518 0.005,-0.12109 -9.8e-4,-0.0488 0.009,-0.083 0.0273,-0.0977 0.019,-0.0137 0.0483,-0.0137 0.0898,-0.006 0.0713,-0.0137 0.17529,-0.0254 0.31152,-0.0322 0,0 0.004,0.26758 0.004,0.26758 z m -0.24707,-0.67285 c 0,0 -1.10303,0.82031 -1.10303,0.82031 0,0 -0.17725,-0.23828 -0.17725,-0.23828 0,0 0.81836,-0.60937 0.81836,-0.60937 0.003,-0.0186 4.9e-4,-0.0391 -0.0127,-0.0566 -0.008,-0.01 -0.0225,-0.0215 -0.0391,-0.0361 -0.021,-0.0127 -0.0356,-0.0244 -0.0435,-0.0342 0,0 -0.28223,-0.11035 -0.28223,-0.11035 0,0 -0.0874,-0.35547 -0.0874,-0.35547 0.0552,0.003 0.1792,0.044 0.36767,0.12989 0.23389,0.14062 0.39747,0.27343 0.48731,0.39453 0,0 0.0718,0.0957 0.0718,0.0957 z"
           id="path3609"
           style="fill:#2e3192;fill-opacity:1;fill-rule:nonzero;stroke:none" /><path
           d="m 583.54785,-116.79395 c 0,0 -0.82617,0.56543 -0.82617,0.56543 0,0 -0.16748,-0.24511 -0.16748,-0.24511 0,0 0.69824,-0.47852 0.69824,-0.47852 0,0 -0.0186,-0.0508 -0.0186,-0.0508 -0.12647,-0.17676 -0.30518,-0.3877 -0.53565,-0.63281 -0.30517,-0.32813 -0.48877,-0.53028 -0.5581,-0.60645 0,0 0.10498,-0.41504 0.10498,-0.41504 0.41601,0.49903 0.83105,1.04688 1.23877,1.64453 0.0601,0.0869 0.0806,0.15918 0.064,0.21875 z"
           id="path3611"
           style="fill:#2e3192;fill-opacity:1;fill-rule:nonzero;stroke:none" /><path
           d="m 584.6582,-117.92969 c -0.0225,-0.0186 -0.0351,-0.0303 -0.0405,-0.0381 -0.0264,-0.0254 -0.0654,-0.043 -0.11573,-0.0527 -0.0513,-0.0107 -0.0928,-0.006 -0.1206,0.0117 -0.0361,0.0215 -0.0459,0.0606 -0.0386,0.11719 0,0.0254 0.008,0.0469 0.0283,0.0713 0.0225,0.0283 0.0464,0.0391 0.0733,0.0381 0.11181,-0.0176 0.1792,-0.0332 0.20361,-0.0488 0.02,-0.0117 0.0337,-0.0254 0.0454,-0.043 -0.008,-0.0205 -0.0195,-0.0391 -0.0352,-0.0557 z m 0.27832,0.01 c 0.17725,0.28613 0.21045,0.59863 0.0972,0.94629 -0.0698,0.20898 -0.17676,0.35937 -0.32568,0.45117 -0.12842,0.0801 -0.28711,0.11035 -0.47901,0.0879 -0.16601,-0.0166 -0.31933,-0.0674 -0.45654,-0.1543 -0.0166,-0.0264 -0.0195,-0.04 -0.0156,-0.043 0.31787,0.0381 0.56982,-0.004 0.75488,-0.11718 0.0679,-0.043 0.12549,-0.0937 0.17578,-0.15625 0.12354,-0.15039 0.19482,-0.37696 0.20215,-0.67774 0,0 -0.28516,0.11328 -0.28516,0.11328 -0.0439,9.8e-4 -0.0874,0.002 -0.13135,0.004 -0.0503,-9.8e-4 -0.0903,-0.0117 -0.12158,-0.0352 -0.0625,-0.0391 -0.1123,-0.0918 -0.15185,-0.15625 -0.0864,-0.13867 -0.10596,-0.31445 -0.0679,-0.53125 -9.8e-4,-0.0459 0.021,-0.0908 0.0664,-0.13476 0.0723,-0.0449 0.15332,-0.0478 0.24951,-0.009 0.0156,0.007 0.0913,0.0478 0.22364,0.12793 0.10986,0.0781 0.19775,0.1748 0.26513,0.28418 z"
           id="path3613"
           style="fill:#2e3192;fill-opacity:1;fill-rule:nonzero;stroke:none" /><path
           d="m 586.39941,-118.50293 c -0.10107,0.1582 -0.34423,0.33301 -0.72412,0.52539 -0.0605,0.008 -0.10009,0.0147 -0.12304,0.0117 -0.0479,0.002 -0.0854,-0.008 -0.11914,-0.0293 -0.0361,-0.0361 -0.0684,-0.0742 -0.0942,-0.12109 -0.0576,-0.10352 -0.0762,-0.21484 -0.0596,-0.33106 0.004,-0.003 0.008,-0.005 0.0122,-0.0166 0,0 0.006,-0.009 0.01,-0.0117 0.0322,0.0488 0.0537,0.0977 0.0835,0.14161 0.0366,0.0557 0.085,0.0742 0.14111,0.0586 0.28125,-0.12598 0.49365,-0.25977 0.64062,-0.40332 10e-4,-0.0254 -0.003,-0.0537 -0.0137,-0.0732 -0.0107,-0.0186 -0.0342,-0.042 -0.062,-0.0713 -0.0317,-0.0283 -0.0532,-0.0469 -0.0635,-0.0566 0,0 -0.42578,-0.34668 -0.42578,-0.34668 -0.007,-0.0518 -0.0132,-0.16895 -0.021,-0.3584 0,0 0.0166,-0.01 0.0166,-0.01 0.35937,0.27735 0.62939,0.56836 0.81054,0.87403 0.0449,0.0713 0.042,0.14355 -0.008,0.21777 z"
           id="path3615"
           style="fill:#2e3192;fill-opacity:1;fill-rule:nonzero;stroke:none" /><path
           d="m 587.25684,-118.93848 c 0,0 -0.89258,0.45313 -0.89258,0.45313 0,0 -0.13428,-0.26465 -0.13428,-0.26465 0,0 0.75391,-0.38281 0.75391,-0.38281 0,0 -0.0112,-0.0537 -0.0112,-0.0537 -0.10254,-0.19141 -0.25245,-0.42383 -0.44922,-0.69727 -0.25977,-0.36426 -0.41553,-0.58789 -0.47461,-0.67383 0,0 0.1582,-0.39746 0.1582,-0.39746 0.34766,0.54883 0.68799,1.14649 1.01514,1.79102 0.0474,0.0947 0.0586,0.16894 0.0347,0.22558 z"
           id="path3617"
           style="fill:#2e3192;fill-opacity:1;fill-rule:nonzero;stroke:none" /><path
           d="m 587.81299,-119.20508 c 0,0 -0.0176,0.008 -0.0176,0.008 0,0 -0.0835,-0.12207 -0.0835,-0.12207 -0.0977,-0.20898 -0.23242,-0.47461 -0.39746,-0.79296 -0.23193,-0.43946 -0.36474,-0.69922 -0.40722,-0.77833 0,0 0.0942,-0.44531 0.0942,-0.44531 0.0298,0.0635 0.062,0.0986 0.0967,0.10645 0.17481,0.28515 0.45362,0.83398 0.8379,1.65332 -0.01,0.0576 -0.0493,0.18457 -0.12305,0.37109 z"
           id="path3619"
           style="fill:#2e3192;fill-opacity:1;fill-rule:nonzero;stroke:none" /><path
           d="m 590.3667,-119.65527 c -0.12793,-0.002 -0.27051,-0.0176 -0.43359,-0.0449 0.0137,-0.0957 0.0317,-0.17871 0.0596,-0.25097 0.0601,-0.0137 0.12988,-0.0166 0.2124,-0.002 0.0698,0.0108 0.14599,0.0244 0.21631,0.0342 0.002,0.0469 -0.0186,0.13672 -0.0547,0.26368 z m -0.32666,-0.83789 c 0,0 -0.0767,-0.19825 -0.0767,-0.19825 -0.0303,-0.0117 -0.0645,-0.009 -0.0952,0.004 -0.0176,0.007 -0.0586,0.0322 -0.1167,0.0791 -0.11718,0.0879 -0.20898,0.20508 -0.27734,0.35449 -0.0664,0.1543 -0.0918,0.29786 -0.0801,0.43067 0.006,0.0684 0.023,0.13867 0.0488,0.20508 0.0562,0.14453 0.14404,0.25293 0.27149,0.33203 0.19091,0.0869 0.44433,0.0742 0.75732,-0.0332 0.0801,-0.0176 0.15576,-0.042 0.23975,-0.0742 0.12744,-0.0508 0.30615,-0.13868 0.5288,-0.26758 0,0 0.0112,0.0283 0.0112,0.0283 -0.0859,0.10449 -0.17138,0.20996 -0.25732,0.31347 -0.10498,0.12305 -0.21484,0.20313 -0.33545,0.2461 -0.0601,0.0273 -0.11572,0.0537 -0.16846,0.0742 -0.37451,0.14648 -0.66748,0.12304 -0.875,-0.0723 -0.12109,-0.11523 -0.21679,-0.25879 -0.28418,-0.43262 -0.0728,-0.18554 -0.0991,-0.37011 -0.0825,-0.54785 0,0 0.11035,-0.53711 0.11035,-0.53711 -0.0303,-0.0127 -0.083,0.008 -0.16162,0.0527 -0.0337,0.0176 -0.0693,0.0566 -0.10303,0.11133 -0.0395,0.0684 -0.0723,0.11425 -0.0937,0.13671 -0.0137,-0.008 -0.0244,-0.0234 -0.0298,-0.0498 -0.0102,-0.0391 -0.0137,-0.0615 -0.0137,-0.0615 0.0166,-0.23047 0.10547,-0.39258 0.25781,-0.48145 0.084,-0.0322 0.21094,-0.0576 0.38086,-0.0772 0.16162,-0.0147 0.28662,-0.0439 0.37354,-0.082 0.0532,-0.0449 0.10937,-0.0957 0.16601,-0.14648 0.0562,-0.0508 0.11914,-0.084 0.18213,-0.1045 0.0147,0.0381 0.0195,0.0889 0.02,0.15528 -9.7e-4,0.0762 0.003,0.12695 0.009,0.15234 -0.0181,0.0449 -0.0644,0.082 -0.14209,0.11719 -0.084,0.0332 -0.12988,0.0703 -0.14062,0.10742 0.0835,0.11035 0.25927,0.13281 0.53173,0.0645 0,0 0.30811,-0.12011 0.30811,-0.12011 0,0 0.10791,0.27636 0.10791,0.27636 0,0 -0.229,0.0898 -0.229,0.0898 -0.26856,0.10351 -0.51709,0.0918 -0.74219,-0.0449 z"
           id="path3621"
           style="fill:#2e3192;fill-opacity:1;fill-rule:nonzero;stroke:none" /><path
           d="m 591.52197,-121.00977 c 0,0 0.0962,0.28125 0.0962,0.28125 0,0 -0.67871,0.2334 -0.67871,0.2334 0,0 -0.0962,-0.28125 -0.0962,-0.28125 0,0 0.67871,-0.2334 0.67871,-0.2334 z"
           id="path3623"
           style="fill:#2e3192;fill-opacity:1;fill-rule:nonzero;stroke:none" /><path
           d="m 592.8916,-120.40918 c -0.061,-0.004 -0.17871,-0.0176 -0.35596,-0.0469 -0.0107,0.0137 -0.0303,0.0469 -0.0561,0.10546 -0.0151,0.0469 -0.0415,0.0742 -0.0835,0.082 0,0 -0.34424,-0.0879 -0.34424,-0.0879 -0.009,-0.0293 -0.003,-0.0732 0.0156,-0.125 0.0137,-0.0371 0.0298,-0.0801 0.0464,-0.12109 0,0 0.0273,-0.01 0.0273,-0.01 0,0 0.34082,0.0479 0.34082,0.0479 0.0122,-0.009 0.0254,-0.0459 0.0444,-0.11133 0.0151,-0.0459 0.0361,-0.0762 0.0581,-0.083 0.023,-0.007 0.0503,0.002 0.0864,0.0234 0.0728,0.01 0.17431,0.0352 0.30469,0.0732 0,0 -0.084,0.25293 -0.084,0.25293 z m -0.0103,-0.71582 c 0,0 -1.3125,0.4082 -1.3125,0.4082 0,0 -0.0884,-0.28418 -0.0884,-0.28418 0,0 0.97412,-0.30273 0.97412,-0.30273 0.01,-0.0166 0.0132,-0.0361 0.007,-0.0576 -0.004,-0.0127 -0.0137,-0.0283 -0.0249,-0.0479 -0.0156,-0.0176 -0.0249,-0.0342 -0.0293,-0.0469 0,0 -0.2295,-0.19727 -0.2295,-0.19727 0,0 0.0352,-0.36328 0.0352,-0.36328 0.0513,0.0205 0.15479,0.0996 0.30371,0.24414 0.17383,0.20996 0.28467,0.38867 0.3291,0.5332 0,0 0.0357,0.11426 0.0357,0.11426 z"
           id="path3625"
           style="fill:#2e3192;fill-opacity:1;fill-rule:nonzero;stroke:none" /><path
           d="m 593.4209,-121.5791 c 0,0 0.0806,0.28515 0.0806,0.28515 0,0 -0.69091,0.19434 -0.69091,0.19434 0,0 -0.0801,-0.28613 -0.0801,-0.28613 0,0 0.69043,-0.19336 0.69043,-0.19336 z"
           id="path3627"
           style="fill:#2e3192;fill-opacity:1;fill-rule:nonzero;stroke:none" /><path
           d="m 594.43994,-121.53418 c 0,0 -1.00293,0.25586 -1.00293,0.25586 0,0 -0.0732,-0.28809 -0.0732,-0.28809 0,0 0.81934,-0.20898 0.81934,-0.20898 0,0 9.7e-4,-0.0557 9.7e-4,-0.0557 -0.0586,-0.20801 -0.15381,-0.4668 -0.28613,-0.77637 -0.17334,-0.41309 -0.27686,-0.66699 -0.31592,-0.76172 0,0 0.24121,-0.35449 0.24121,-0.35449 0.21924,0.6123 0.4209,1.26953 0.59912,1.96972 0.0288,0.11231 0.0322,0.18457 0.0176,0.21973 z"
           id="path3629"
           style="fill:#2e3192;fill-opacity:1;fill-rule:nonzero;stroke:none" /><path
           d="m 595.04053,-121.97363 c 0,0 0.0659,0.28906 0.0659,0.28906 0,0 -0.69874,0.16016 -0.69874,0.16016 0,0 -0.0664,-0.28907 -0.0664,-0.28907 0,0 0.69922,-0.16015 0.69922,-0.16015 z"
           id="path3631"
           style="fill:#2e3192;fill-opacity:1;fill-rule:nonzero;stroke:none" /><path
           d="m 596.13574,-123.22949 c -0.0186,0.0527 -0.0527,0.0772 -0.0967,0.0762 -0.15088,-0.041 -0.27343,-0.0801 -0.37304,-0.125 0.0181,-0.0586 0.0547,-0.14648 0.10888,-0.26856 0.0879,0.0332 0.22608,0.0801 0.40479,0.13379 0,0 0.007,0.0391 0.007,0.0391 -0.003,0.01 -0.0186,0.0566 -0.0508,0.14453 z m 1.3291,1.09472 c 0,0 -2.41113,0.44141 -2.41113,0.44141 0,0 -0.0537,-0.29199 -0.0537,-0.29199 0,0 1.66406,-0.30469 1.66406,-0.30469 -0.23047,-0.125 -0.36816,-0.19922 -0.41406,-0.2168 -0.16211,-0.0645 -0.30518,-0.0889 -0.43066,-0.0654 -0.0601,0.0108 -0.11426,0.0303 -0.1709,0.0625 -0.0586,0.0479 -0.12354,0.0859 -0.19483,0.11719 -0.0356,-0.0117 -0.042,-0.0459 -0.0176,-0.0967 0.0879,-0.17773 0.20507,-0.29394 0.36132,-0.33594 0.20069,-0.0547 0.43311,-0.0215 0.68311,0.0869 0.21387,0.0908 0.42383,0.18848 0.63281,0.28418 0.10742,0.0352 0.20899,0.043 0.29785,0.0273 0,0 0.0537,0.29199 0.0537,0.29199 z"
           id="path3633"
           style="fill:#2e3192;fill-opacity:1;fill-rule:nonzero;stroke:none" /><path
           d="m 598.06641,-122.49707 c 0,0 0.041,0.29394 0.041,0.29394 0,0 -0.71094,0.0986 -0.71094,0.0986 0,0 -0.041,-0.29492 -0.041,-0.29492 0,0 0.71094,-0.0977 0.71094,-0.0977 z"
           id="path3635"
           style="fill:#2e3192;fill-opacity:1;fill-rule:nonzero;stroke:none" /><path
           d="m 599.03711,-122.30957 c 0,0 -0.99512,0.11035 -0.99512,0.11035 0,0 -0.0332,-0.29492 -0.0332,-0.29492 0,0 0.84082,-0.0928 0.84082,-0.0928 0,0 0.008,-0.0547 0.008,-0.0547 -0.0293,-0.21485 -0.0869,-0.48633 -0.17578,-0.81055 -0.11328,-0.43359 -0.18164,-0.69726 -0.20703,-0.79687 0,0 0.28906,-0.31739 0.28906,-0.31739 0.13086,0.63575 0.24024,1.31543 0.31836,2.03321 0.0117,0.10644 -0.003,0.17871 -0.0449,0.22363 z"
           id="path3637"
           style="fill:#2e3192;fill-opacity:1;fill-rule:nonzero;stroke:none" /><path
           d="m 599.63574,-122.3623 c 0,0 -0.0186,0.002 -0.0186,0.002 0,0 -0.0361,-0.14453 -0.0361,-0.14453 -0.0186,-0.23047 -0.0517,-0.52539 -0.0947,-0.88184 -0.0635,-0.49316 -0.0957,-0.7832 -0.1084,-0.87207 0,0 0.24316,-0.38476 0.24316,-0.38476 0.006,0.0713 0.0234,0.11425 0.0547,0.13476 0.0635,0.32813 0.13281,0.94043 0.20508,1.8418 -0.0293,0.0508 -0.11035,0.15625 -0.24512,0.30469 z"
           id="path3639"
           style="fill:#2e3192;fill-opacity:1;fill-rule:nonzero;stroke:none" /><path
           d="m 582.99512,-94.12402 c 0.15283,-4.70411 0.53515,-8.20215 6.24267,-8.20215 3.05811,0.0244 5.17285,0.78808 5.98828,3.99121 0.17823,0.73828 0.15284,1.50195 0.17823,2.24121 0,0 -3.56739,0 -3.56739,0 -0.0508,-1.87207 -0.17822,-3.35059 -2.59912,-3.44824 -2.80273,0 -2.57324,3.22656 -2.57324,4.65527 0,0 0,5.12402 0,5.12402 0,1.52637 0.12744,4.01465 2.57324,4.01465 2.03858,0 2.70117,-2.09472 2.62451,-4.87793 0,0 -2.47167,0 -2.47167,0 0,0 0,-2.70898 0,-2.70898 0,0 5.93701,0 5.93701,0 0,0 0,9.92676 0,9.92676 0,0 -2.6753,0 -2.6753,0 0,0 0,-2.11817 0,-2.11817 0,0 -0.0508,0 -0.0508,0 -0.71338,1.9209 -2.06396,2.46289 -3.36377,2.56153 -5.86035,0 -6.24267,-3.59668 -6.24267,-8.52246 0,0 0,-2.63672 0,-2.63672 z"
           id="path3641"
           style="fill:#2e3192;fill-opacity:1;fill-rule:nonzero;stroke:none" /><path
           d="m 598.91992,-83.4082 c 0,0 0,-18.47364 0,-18.47364 0,0 3.56836,0 3.56836,0 0,0 0,18.47364 0,18.47364 0,0 -3.56836,0 -3.56836,0 z"
           id="path3643"
           style="fill:#2e3192;fill-opacity:1;fill-rule:nonzero;stroke:none" /><path
           d="m 611.20215,-86.11816 c 3.18457,0 3.38965,-1.625 3.38965,-6.97071 0,-4.35937 -0.45899,-6.08398 -2.59961,-6.08398 0,0 -2.34375,0 -2.34375,0 0,0 0,13.05469 0,13.05469 0,0 1.55371,0 1.55371,0 z m -5.12207,2.70996 c 0,0 0,-18.47364 0,-18.47364 0,0 7.4414,0 7.4414,0 0.86524,0 2.59864,0.36914 3.69434,2.09375 0.81543,1.28028 1.04492,3.32422 1.04492,6.37891 0,3.64648 0,7.85742 -2.93066,9.50781 -0.78906,0.44336 -1.75781,0.49317 -2.65039,0.49317 0,0 -6.59961,0 -6.59961,0 z"
           id="path3645"
           style="fill:#2e3192;fill-opacity:1;fill-rule:nonzero;stroke:none" /><path
           d="m 627.3252,-99.94238 c 0,0 17.21289,-32.58789 -5.50782,-24.55469 -28.45898,12.85156 -46.3584,38.32617 -46.3584,38.32617 0,0 22.26075,-37.86816 51.17676,-42.6875 20.42578,-0.45898 0.68946,28.91602 0.68946,28.91602 z"
           id="path3647"
           style="fill:#ed1c24;fill-opacity:1;fill-rule:nonzero;stroke:none" /></g></g></g></svg>
